<svg class="text-red-500" width="366" height="82" viewBox="0 0 366 82" fill="currentColor" xmlns="http://www.w3.org/2000/svg">
<path d="M92.7856 22.6127V0.463379H101.779L109.615 12.5331L117.45 0.463379H126.443V22.6127H118.697V10.6713L111.288 22.6127H107.95L100.532 10.6713V22.6127H92.7856Z" fill="currentColor"/>
<path d="M132.058 22.6127V0.463379H153.562V5.50314H139.805V7.55536H139.803V14.5554H139.805V17.5729H153.562V22.6127H132.058Z" fill="currentColor"/>
<path d="M140.803 13.8492V8.80948H152.226V13.8492H140.803Z" fill="currentColor"/>
<path d="M157.494 6.11305V16.963C157.494 20.7294 160.106 22.6127 165.33 22.6127H180.333V17.5729H165.73C165.404 17.5729 165.241 17.4552 165.241 17.2198V5.85625C165.241 5.62084 165.404 5.50314 165.73 5.50314H180.333V0.463379H165.33C160.106 0.463379 157.494 2.3466 157.494 6.11305Z" fill="currentColor"/>
<path d="M184.69 22.6127V0.463379H192.437V8.80948H201.697V0.463379H209.444V22.6127H201.697V13.8492H192.437V22.6127H184.69Z" fill="currentColor"/>
<path d="M221.015 0.463379L211.362 22.6127H219.769L221.07 19.2193L221.065 19.2174L221.169 18.9616L221.282 18.6643H221.289L223.548 13.0738L226.536 5.50314H227.07L230.276 13.6245H224.404L222.367 18.6643H232.324L233.837 22.6127H242.055L232.591 0.463379H221.015Z" fill="currentColor"/>
<path d="M244.148 22.6127V0.463379H252.518L262.713 13.3035V0.463379H270.46V22.6127H262.135L251.895 9.77249V22.6127H244.148Z" fill="currentColor"/>
<path d="M276.073 0.463379V22.6127H283.819V0.463379H276.073Z" fill="currentColor"/>
<path d="M288.987 16.963V6.11305C288.987 2.3466 291.599 0.463379 296.823 0.463379H311.827V5.50314H297.224C296.897 5.50314 296.734 5.62084 296.734 5.85625V17.2198C296.734 17.4552 296.897 17.5729 297.224 17.5729H311.827V22.6127H296.823C291.599 22.6127 288.987 20.7294 288.987 16.963Z" fill="currentColor"/>
<path d="M322.149 0.463379L312.95 22.6127H320.903L322.416 18.6643H322.436L324.537 13.4395L327.67 5.50314H328.204L331.41 13.6245H325.541L323.514 18.6643H333.458L334.971 22.6127H342.95L333.725 0.463379H322.149Z" fill="currentColor"/>
<path d="M345.282 22.6127V0.463379H353.029V17.5729H365.45V22.6127H345.282Z" fill="currentColor"/>
<path d="M92.3404 35.5384V46.3883C92.3404 50.1548 94.9523 52.038 100.176 52.038H115.18V46.9982H100.577C100.25 46.9982 100.087 46.8805 100.087 46.6451V35.2816C100.087 35.0462 100.25 34.9285 100.577 34.9285H115.18V29.8887H100.176C94.9523 29.8887 92.3404 31.772 92.3404 35.5384Z" fill="currentColor"/>
<path fill-rule="evenodd" clip-rule="evenodd" d="M119.091 46.3883V35.5384C119.091 31.772 121.703 29.8887 126.927 29.8887H136.9C142.123 29.8887 144.735 31.772 144.735 35.5384V46.3883C144.735 50.1548 142.123 52.038 136.9 52.038H126.927C121.703 52.038 119.091 50.1548 119.091 46.3883ZM126.838 46.6451C126.838 46.8805 127.001 46.9982 127.328 46.9982H136.499C136.825 46.9982 136.989 46.8805 136.989 46.6451V35.2816C136.989 35.0462 136.825 34.9285 136.499 34.9285H127.328C127.001 34.9285 126.838 35.0462 126.838 35.2816V46.6451Z" fill="currentColor"/>
<path fill-rule="evenodd" clip-rule="evenodd" d="M149.451 35.5384V46.3883C149.451 50.1548 152.063 52.038 157.286 52.038H167.259C172.483 52.038 175.095 50.1548 175.095 46.3883V35.5384C175.095 31.772 172.483 29.8887 167.259 29.8887H157.286C152.063 29.8887 149.451 31.772 149.451 35.5384ZM157.687 46.9982C157.361 46.9982 157.197 46.8805 157.197 46.6451V35.2816C157.197 35.0462 157.361 34.9285 157.687 34.9285H166.858C167.185 34.9285 167.348 35.0462 167.348 35.2816V46.6451C167.348 46.8805 167.185 46.9982 166.858 46.9982H157.687Z" fill="currentColor"/>
<path d="M180.255 52.038V29.8887H188.002V46.9982H200.423V52.038H180.255Z" fill="currentColor"/>
<path d="M203.615 29.8887V52.038H211.362V29.8887H203.615Z" fill="currentColor"/>
<path d="M216.975 52.038V29.8887H225.345L235.54 42.7289V29.8887H243.287V52.038H234.961L224.721 39.1979V52.038H216.975Z" fill="currentColor"/>
<path d="M248.454 35.5384V46.3883C248.454 50.1548 251.066 52.038 256.29 52.038H273.208V38.2348H260.43L260.45 38.4634L268.45 44.4634V46.9982H256.691C256.364 46.9982 256.201 46.8805 256.201 46.6451V35.2816C256.201 35.0462 256.364 34.9285 256.691 34.9285H273.208V29.8887H256.29C251.066 29.8887 248.454 31.772 248.454 35.5384Z" fill="currentColor"/>
<path d="M91.45 79.5374V76.4236H105.296C105.622 76.4236 105.786 76.3059 105.786 76.0705V73.8877C105.786 73.5881 105.608 73.4169 105.251 73.3741L97.0151 72.1543C93.305 71.6407 91.45 69.8537 91.45 66.7935V64.9638C91.45 61.1973 94.0619 59.3141 99.2857 59.3141H109.169L112.642 61.2401V64.3539H99.6863C99.3599 64.3539 99.1966 64.4716 99.1966 64.707V66.7614C99.1966 67.0396 99.3747 67.2108 99.7309 67.275L107.967 68.4306C111.677 68.987 113.532 70.7846 113.532 73.8235V75.8137C113.532 79.5802 110.92 81.4634 105.697 81.4634H94.9226L91.45 79.5374Z" fill="currentColor"/>
<path d="M117.797 59.3141V81.4634H139.301V76.4634H125.45V64.4634H139.301V59.3141H117.797Z" fill="currentColor"/>
<path d="M126.45 67.6602V72.7H137.965V67.6602H126.45Z" fill="currentColor"/>
<path fill-rule="evenodd" clip-rule="evenodd" d="M143.679 81.4634V59.3141H158.816C164.04 59.3141 166.651 61.1973 166.651 64.9638V68.6874C166.651 71.2982 165.405 73.0103 162.912 73.8235L168.45 81.4634H159.973L154.898 74.305L151.425 69.4634V81.4634H143.679ZM151.425 68.4634H158.905V64.707H151.425V68.4634Z" fill="currentColor"/>
<path d="M167.95 59.3141L176.907 81.4634H188.927L197.95 59.3141H189.372L183.184 76.4236H182.65L176.461 59.3141H167.95Z" fill="currentColor"/>
<path d="M200.05 81.4634V59.3141H207.796V81.4634H200.05Z" fill="currentColor"/>
<path d="M212.964 64.9638V75.8137C212.964 79.5802 215.576 81.4634 220.8 81.4634H235.804V76.4236H221.201C220.874 76.4236 220.711 76.3059 220.711 76.0705V64.707C220.711 64.4716 220.874 64.3539 221.201 64.3539H235.804V59.3141H220.8C215.576 59.3141 212.964 61.1973 212.964 64.9638Z" fill="currentColor"/>
<path d="M240.16 81.4634V59.3141H261.664V64.3539H247.907V76.4236H261.664V81.4634H240.16Z" fill="currentColor"/>
<path d="M248.907 72.7H260.328V67.6602H248.907V72.7Z" fill="currentColor"/>
<path d="M264.706 76.4236V79.5374L268.179 81.4634H278.953C284.176 81.4634 286.788 79.5802 286.788 75.8137V73.8235C286.788 70.7846 284.933 68.987 281.223 68.4306L272.987 67.275C272.631 67.2108 272.453 67.0396 272.453 66.7614V64.707C272.453 64.4716 272.616 64.3539 272.942 64.3539H285.898V61.2401L282.425 59.3141H272.542C267.318 59.3141 264.706 61.1973 264.706 64.9638V66.7935C264.706 69.8537 266.561 71.6407 270.271 72.1543L278.508 73.3741C278.864 73.4169 279.042 73.5881 279.042 73.8877V76.0705C279.042 76.3059 278.879 76.4236 278.552 76.4236H264.706Z" fill="currentColor"/>
<path d="M77.0345 5.06545C63.0293 -6.92386 28.6705 7.32007 13.2418 15.9407C24.9128 14.4376 50.6421 14.0044 60.1911 24.2961C69.7401 34.5878 60.0143 55.0209 53.9577 63.951L69.8727 46.4445C78.0955 37.647 91.0397 17.0548 77.0345 5.06545Z" fill="#ED1D24"/>
<path d="M3.83249 72.7119C15.2322 87.201 51.7083 79.9272 68.5214 74.4792C56.7812 73.6786 31.461 69.0886 24.1011 57.133C16.7412 45.1775 30.2632 27.032 37.9442 19.4537L18.9222 33.5224C9.14239 40.5484 -7.56724 58.2227 3.83249 72.7119Z" fill="#1375BC"/>
<path d="M33.7946 40.6388C31.5136 33.9045 44.8223 28.6306 51.7617 26.8354C42.4788 33.7857 44.7921 34.4838 44.7921 34.7101C47.7338 37.3803 53.6625 41.6798 53.6173 48.9662C53.5811 54.7953 41.5637 59.1491 35.5596 60.5973C43.4887 56.325 43.4193 53.688 42.3935 52.9036C40.4776 51.6213 36.0755 47.3731 33.7946 40.6388Z" fill="currentColor"/>
</svg>
