<?xml version="1.0" standalone="no"?>
<!DOCTYPE svg PUBLIC "-//W3C//DTD SVG 1.1//EN"
  "http://www.w3.org/Graphics/SVG/1.1/DTD/svg11.dtd">
<svg version="1.1" xmlns="http://www.w3.org/2000/svg" xmlns:xlink="http://www.w3.org/1999/xlink" width="1920" height="1080" viewBox="-1700.4444444444443 -419.9999999999999 3368.8888888888887 1894.9999999999998" id="ccdiagram"><filter id="grayscale"><feColorMatrix type="saturate" values="0"></feColorMatrix></filter><filter id="highlight"><feColorMatrix type="matrix" color-interpolation-filters="sRGB" values="0.20338 0 0 0 0 0 0.58474 0 0 0 0 0 0.97033 0 0 0 0 0 1 0"></feColorMatrix></filter><defs><style type="text/css">@import url('https://fonts.googleapis.com/css?family=Open+Sans:400,700|Inconsolata:400');</style></defs><g><rect x="-1700.4444444444443" y="-419.9999999999999" width="3368.8888888888887" height="1894.9999999999998" fill="#ffffff" id="interactionLayer"></rect><g pointer-events="auto"><g opacity="1"><g><g><polygon points="1264 775, 1536 932, 1536 969, 1312 1099, 1248 1099, 976 942, 976 905, 1200 775" fill="#000000" opacity="0.3"></polygon><polygon points="1264 768, 1536 925, 1536 962, 1312 1092, 1248 1092, 976 934, 976 897, 1200 768" fill="#ffffff" stroke-width="2" stroke="#e6e7e8"></polygon><polygon points="1232 786, 1504 944, 1280 1073, 1008 916" fill="#e6e7e8"></polygon></g></g></g><g opacity="1"><g><g><polygon points="960 951, 1232 1108, 1232 1145, 1008 1275, 944 1275, 672 1117, 672 1080, 896 951" fill="#000000" opacity="0.3"></polygon><polygon points="960 944, 1232 1101, 1232 1138, 1008 1267, 944 1267, 672 1110, 672 1073, 896 944" fill="#ffffff" stroke-width="2" stroke="#e6e7e8"></polygon><polygon points="928 962, 1200 1119, 976 1249, 704 1092" fill="#e6e7e8"></polygon></g></g></g><g opacity="1"><g><g><polygon points="656 1127, 928 1284, 928 1321, 704 1450, 640 1450, 368 1293, 368 1256, 592 1127" fill="#000000" opacity="0.3"></polygon><polygon points="656 1119, 928 1277, 928 1314, 704 1443, 640 1443, 368 1286, 368 1249, 592 1119" fill="#ffffff" stroke-width="2" stroke="#e6e7e8"></polygon><polygon points="624 1138, 896 1295, 672 1425, 400 1267" fill="#e6e7e8"></polygon></g></g></g></g><g pointer-events="auto"><g opacity="1"></g><g opacity="1"></g><g opacity="1"></g><g opacity="1"></g><g opacity="1"><g id="b18798bb-7a58-45ac-b436-3871e7a13c43"><g><polygon points="-320 278, 256 611, -64 796, -640 463" fill="#ececed"></polygon><svg x="-350" y="171" overflow="visible"><g fill="#e53935" fill-opacity="1" stroke="none" transform="scale(1.25) matrix(0.707 0.409 -0.707 0.409 0 0)"><path stroke="none" d="M144 93.924l-14.834 8.565v19.577l16.954 9.789 14.835-8.565-6.358-3.67-8.477 4.893-10.597-6.117V106.16l8.478-4.894z"></path><path stroke="none" d="M148.24 93.924v7.342l8.476 4.894v9.788l6.358 3.671v-17.13z"></path></g></svg><polygon points="-640 475, -64 808, -64 796, -640 463" fill="#d2d2d4" stroke="#83838a"></polygon><polygon points="-64 808, 256 623, 256 611, -64 796" fill="#b8b8bb" stroke="#83838a"></polygon><polygon points="-640 481, -64 814, -64 808, -640 475" fill="#cd1e1a" stroke="#cd1e1a"></polygon><polygon points="-64 814, 256 629, 256 623, -64 808" fill="#9f1815" stroke="#9f1815"></polygon><polygon points="-320 278, -640 463, -640 481, -64 814, 256 629, 256 611" fill="none" stroke="#000000" stroke-width="2"></polygon><svg x="-310" y="320" overflow="visible"><clipPath id="clip-b18798bb-7a58-45ac-b436-3871e7a13c43"><polygon points="-10 -43, 566 290, 246 475, -330 142"></polygon></clipPath><g clip-path="url(#clip-b18798bb-7a58-45ac-b436-3871e7a13c43)" font-family="Open Sans" font-size="32pt" fill="#000000" font-weight="bold"><text stroke="#ffffff" stroke-width="4" transform="matrix(0.707 0.409 -0.707 0.409 0 0)"><tspan>ECS Cluster</tspan></text><text transform="matrix(0.707 0.409 -0.707 0.409 0 0)"><tspan>ECS Cluster</tspan></text></g></svg></g></g></g></g><g pointer-events="auto"><g opacity="1"><g id="sg-052078c0d3a4cfb2e"><g><g><polygon points="656 416, 720 416, 912 305, 912 268, 688 139, 464 268, 464 305" stroke="#c83b2a" stroke-width="8" fill="none"></polygon></g><g><polygon points="688 139, 656 120, 464 231, 464 268" stroke="#c83b2a" stroke-width="8" fill="#c83b2a"></polygon><text font-family="Inconsolata" font-size="20pt" font-weight="bold" fill="#ffffff" transform="translate(641 156) matrix(0.707 -0.409 0.707 0.409 0 0)" text-anchor="end">Redis</text><g transform="translate(656 129) matrix(0.707 0.409 -0.707 0.409 0 0)"><svg width="23" height="32" style="fill: rgb(255, 255, 255);"><svg xmlns="http://www.w3.org/2000/svg" width="23" height="32" viewBox="0 0 23 32"><path d="M19.429 17.143V5.714h-8v20.304c.911-.482 2.375-1.321 3.804-2.446 1.911-1.5 4.196-3.839 4.196-6.429zm3.428-13.714v13.714c0 7.518-10.518 12.268-10.964 12.464a1.049 1.049 0 0 1-.928 0C10.519 29.411.001 24.661.001 17.143V3.429c0-.625.518-1.143 1.143-1.143h20.571c.625 0 1.143.518 1.143 1.143z"></path></svg></svg></g></g></g></g></g><g opacity="1"><g id="sg-05188900c832d57bc"><g><g><polygon points="-64 851, 320 629, -320 259, -704 481" stroke="#5e35b1" stroke-width="8" fill="none"></polygon></g><g><polygon points="-320 259, -352 241, -576 370, -576 407" stroke="#5e35b1" stroke-width="8" fill="#5e35b1"></polygon><text font-family="Inconsolata" font-size="20pt" font-weight="bold" fill="#ffffff" transform="translate(-367 276) matrix(0.707 -0.409 0.707 0.409 0 0)" text-anchor="end">ECS Cluster</text><g transform="translate(-352 250) matrix(0.707 0.409 -0.707 0.409 0 0)"><svg width="23" height="32" style="fill: rgb(255, 255, 255);"><svg xmlns="http://www.w3.org/2000/svg" width="23" height="32" viewBox="0 0 23 32"><path d="M19.429 17.143V5.714h-8v20.304c.911-.482 2.375-1.321 3.804-2.446 1.911-1.5 4.196-3.839 4.196-6.429zm3.428-13.714v13.714c0 7.518-10.518 12.268-10.964 12.464a1.049 1.049 0 0 1-.928 0C10.519 29.411.001 24.661.001 17.143V3.429c0-.625.518-1.143 1.143-1.143h20.571c.625 0 1.143.518 1.143 1.143z"></path></svg></svg></g></g></g></g></g><g opacity="1"><g id="sg-00bd079808432cae8"><g><g><polygon points="240 176, 304 176, 496 65, 496 28, 272 -102, 48 28, 48 65" stroke="#466b91" stroke-width="8" fill="none"></polygon></g><g><polygon points="272 -102, 240 -120, 48 -9, 48 28" stroke="#466b91" stroke-width="8" fill="#466b91"></polygon><text font-family="Inconsolata" font-size="20pt" font-weight="bold" fill="#ffffff" transform="translate(225 -85) matrix(0.707 -0.409 0.707 0.409 0 0)" text-anchor="end">PostgreSQL</text><g transform="translate(240 -111) matrix(0.707 0.409 -0.707 0.409 0 0)"><svg width="23" height="32" style="fill: rgb(255, 255, 255);"><svg xmlns="http://www.w3.org/2000/svg" width="23" height="32" viewBox="0 0 23 32"><path d="M19.429 17.143V5.714h-8v20.304c.911-.482 2.375-1.321 3.804-2.446 1.911-1.5 4.196-3.839 4.196-6.429zm3.428-13.714v13.714c0 7.518-10.518 12.268-10.964 12.464a1.049 1.049 0 0 1-.928 0C10.519 29.411.001 24.661.001 17.143V3.429c0-.625.518-1.143 1.143-1.143h20.571c.625 0 1.143.518 1.143 1.143z"></path></svg></svg></g></g></g></g></g><g opacity="1"><g id="3a0f372c-1219-4886-90fb-e2b4f294555a"><g><g><polygon points="-672 944, -608 944, -416 833, -416 796, -640 666, -864 796, -864 833" stroke="#607d8b" stroke-width="8" fill="none"></polygon></g><g><polygon points="-640 666, -672 648, -864 759, -864 796" stroke="#607d8b" stroke-width="8" fill="#607d8b"></polygon><text font-family="Inconsolata" font-size="20pt" font-weight="bold" fill="#ffffff" transform="translate(-687 683) matrix(0.707 -0.409 0.707 0.409 0 0)" text-anchor="end">Load Balancer</text><g transform="translate(-672 657) matrix(0.707 0.409 -0.707 0.409 0 0)"><svg width="23" height="32" style="fill: rgb(255, 255, 255);"><svg xmlns="http://www.w3.org/2000/svg" width="23" height="32" viewBox="0 0 23 32"><path d="M19.429 17.143V5.714h-8v20.304c.911-.482 2.375-1.321 3.804-2.446 1.911-1.5 4.196-3.839 4.196-6.429zm3.428-13.714v13.714c0 7.518-10.518 12.268-10.964 12.464a1.049 1.049 0 0 1-.928 0C10.519 29.411.001 24.661.001 17.143V3.429c0-.625.518-1.143 1.143-1.143h20.571c.625 0 1.143.518 1.143 1.143z"></path></svg></svg></g></g></g></g></g></g><g><g><polygon points="-16 435, 16 453, 434 295, 449 309, 464 268, 393 260, 409 274, -16 435" stroke-linejoin="miter" fill="#5e35b1" stroke="none"></polygon><text font-family="Open Sans" font-weight="700" font-size="14pt" fill="white" transform="translate(419 291) matrix(0.707 -0.409 0.707 0.409 0 0) rotate(11.799999999999997)" text-anchor="end">6379 TCP</text></g><g><polygon points="49 417, 122 390, 271 208, 296 215, 272 176, 204 190, 230 197, 49 417" stroke-linejoin="miter" fill="#5e35b1" stroke="none"></polygon><text font-family="Open Sans" font-weight="700" font-size="14pt" fill="white" transform="translate(254 209) matrix(0.707 -0.409 0.707 0.409 0 0) rotate(-19.700000000000003)" text-anchor="end">5432 TCP</text></g><g><polygon points="-528 731, -496 749, -404 696, -384 708, -384 666, -456 666, -436 678, -528 731" stroke-linejoin="miter" fill="#607d8b" stroke="none"></polygon><text font-family="Open Sans" font-weight="700" font-size="14pt" fill="white" transform="translate(-420 693) matrix(0.707 -0.409 0.707 0.409 0 0) rotate(0)" text-anchor="end">3000 TCP</text></g></g><g pointer-events="auto"><g opacity="1"><g id="vpc-079cd5978d20ffc2f"><g><g><polygon points="-384 1332, 1376 315, 192 -370, -1568 648" stroke="#e53935" stroke-width="8" fill="none"></polygon></g><g><polygon points="192 -370, 160 -388, -64 -259, -64 -222" stroke="#e53935" stroke-width="8" fill="#e53935"></polygon><text font-family="Inconsolata" font-size="20pt" font-weight="bold" fill="#ffffff" transform="translate(152 -357) matrix(0.707 -0.409 0.707 0.409 0 0)" text-anchor="end">VPC</text><g transform="translate(160 -384) matrix(0.707 0.409 -0.707 0.409 0 0)"><svg width="34" height="32" style="fill: rgb(255, 255, 255);"><svg xmlns="http://www.w3.org/2000/svg" width="34" height="32" viewBox="0 0 34 32"><path d="M34.286 20.571a6.858 6.858 0 0 1-6.857 6.857H8c-4.411 0-8-3.589-8-8a7.993 7.993 0 0 1 4.607-7.232c-.018-.25-.036-.518-.036-.768a9.137 9.137 0 0 1 9.143-9.143c3.821 0 7.089 2.339 8.464 5.679a4.439 4.439 0 0 1 2.964-1.107 4.58 4.58 0 0 1 4.571 4.571 4.49 4.49 0 0 1-.732 2.464c3.036.714 5.304 3.429 5.304 6.679z"></path></svg></svg></g></g></g></g></g></g><g></g><g pointer-events="auto"><g opacity="1"><g id="subnet-0ad457037cf065114"><g><g><polygon transform="translate(-320,74) matrix(-0.707 -0.409 0.707 -0.409 0 0)" points="-1356.75 -1447.2, -1356.75 0, 0 0, 0 -1447.2" stroke-width="11.2" stroke="#9e9e9e" stroke-dasharray="16" fill="none"></polygon></g><g><polygon points="-320 74, -352 56, -576 185, -576 222" stroke="#9e9e9e" stroke-width="8" fill="#9e9e9e"></polygon><text font-family="Inconsolata" font-size="20pt" font-weight="bold" fill="#ffffff" transform="translate(-364 89) matrix(0.707 -0.409 0.707 0.409 0 0)" text-anchor="end">web-app-production...</text><g transform="translate(-352 63) matrix(0.707 0.409 -0.707 0.409 0 0)"><svg width="27" height="32" style="fill: rgb(255, 255, 255);"><svg xmlns="http://www.w3.org/2000/svg" width="27" height="32" viewBox="0 0 27 32"><path d="M13.714 2.286c7.571 0 13.714 6.143 13.714 13.714s-6.143 13.714-13.714 13.714S0 23.571 0 16 6.143 2.286 13.714 2.286zm4.893 9.303c-.143.107-.232.304-.411.339.089-.018.179-.339.232-.411.107-.125.25-.196.393-.268.304-.125.607-.161.929-.214.304-.071.679-.071.911.196-.054-.054.375-.429.429-.446.161-.089.429-.054.536-.214.036-.054.036-.393.036-.393-.304.036-.411-.25-.429-.5 0 .018-.036.071-.107.143.018-.268-.321-.071-.446-.107-.411-.107-.357-.393-.482-.696-.071-.161-.268-.214-.339-.375-.071-.107-.107-.339-.268-.357-.107-.018-.304.375-.339.357-.161-.089-.232.036-.357.107-.107.071-.196.036-.304.089.321-.107-.143-.286-.304-.25.25-.071.125-.339-.018-.464h.089c-.036-.161-.536-.304-.696-.411s-1.018-.286-1.196-.179c-.214.125.054.482.054.661.018.214-.214.268-.214.446 0 .304.571.25.429.661-.089.25-.429.304-.571.5-.143.179.018.5.161.625.143.107-.25.286-.304.321-.304.143-.536-.304-.607-.571-.054-.196-.071-.429-.286-.536-.107-.036-.446-.089-.518.018-.107-.268-.482-.375-.732-.464-.357-.125-.661-.125-1.036-.071.125-.018-.036-.571-.339-.482.089-.179.054-.375.089-.554.036-.143.107-.286.214-.411.036-.071.429-.482.304-.5.304.036.643.054.893-.196.161-.161.232-.429.393-.607.232-.268.518.071.768.089.357.018.339-.375.143-.554.232.018.036-.411-.089-.464-.161-.054-.768.107-.446.232-.071-.036-.5.857-.75.411-.071-.089-.107-.464-.268-.482-.143 0-.232.161-.286.268.089-.232-.5-.393-.625-.411.268-.179.054-.375-.143-.482-.143-.089-.589-.161-.714-.018-.339.411.357.464.536.571.054.036.268.161.143.25-.107.054-.429.143-.464.214-.107.161.125.339-.036.5-.161-.161-.161-.429-.286-.607.161.196-.643.089-.625.089-.268 0-.696.179-.893-.089-.036-.071-.036-.482.071-.393-.161-.125-.268-.25-.375-.321-.589.196-1.143.446-1.679.732a.302.302 0 0 0 .214-.018c.143-.054.268-.143.411-.214.179-.071.554-.286.75-.125.018-.036.071-.071.089-.089.125.143.25.286.357.446-.143-.071-.375-.036-.536-.018-.125.036-.339.071-.393.214.054.089.125.232.089.321-.232-.161-.411-.429-.732-.464-.143 0-.286 0-.393.018a11.598 11.598 0 0 0-4.196 3.964.506.506 0 0 0 .214.143c.179.054 0 .571.339.304.107.089.125.214.054.339.018-.018.732.446.786.482.125.107.321.232.375.375.036.125-.071.268-.179.321-.018-.036-.286-.304-.321-.232-.054.089 0 .571.196.554-.286.018-.161 1.125-.232 1.339 0 .018.036.018.036.018-.054.214.125 1.054.482.964-.232.054.411.875.5.929.232.161.5.268.661.5.179.25.179.625.429.821-.071.214.375.464.357.768-.036.018-.054.018-.089.036.089.25.429.25.554.482.071.143 0 .482.232.411.036-.393-.232-.786-.429-1.107-.107-.179-.214-.339-.304-.518-.089-.161-.107-.357-.179-.536.071.018.464.161.429.214-.143.357.571.982.768 1.214.054.054.464.589.25.589.232 0 .554.357.661.536.161.268.125.607.232.893.107.357.607.518.893.679.25.125.464.304.714.393.375.143.464.018.786-.036.464-.071.518.446.893.643.232.125.732.304.982.196-.107.036.375.768.411.821.161.214.464.321.643.536a.283.283 0 0 0 .125-.161c-.071.196.268.571.446.536.196-.036.25-.429.25-.571-.357.179-.679.036-.875-.321-.036-.089-.321-.589-.071-.589.339 0 .107-.268.071-.518s-.286-.411-.411-.625c-.107.214-.464.161-.571-.018 0 .054-.054.143-.054.214-.089 0-.179.018-.268-.018.036-.214.054-.482.107-.714.089-.321.679-.946-.089-.911-.268.018-.375.125-.464.357-.089.214-.054.411-.304.518-.161.071-.696.036-.857-.054-.339-.196-.571-.821-.571-1.179-.018-.482.232-.911 0-1.357.107-.089.214-.268.339-.357.107-.071.232.054.286-.161-.054-.036-.125-.107-.143-.107.268.125.768-.179 1 0 .143.107.304.143.393-.036.018-.054-.125-.268-.054-.411.054.304.25.357.518.161.107.107.393.071.589.179.196.125.232.321.464.054.143.214.161.214.214.429.054.196.161.696.339.786.375.232.286-.393.25-.607-.018-.018-.018-.607-.036-.607-.571-.125-.357-.571-.036-.875.054-.036.464-.179.643-.321.161-.143.357-.393.268-.625.089 0 .161-.071.196-.161-.054-.018-.268-.196-.304-.179.125-.071.107-.179.036-.286.179-.107.089-.304.268-.375.196.268.589-.036.393-.25.179-.25.589-.125.696-.357.268.071.071-.268.214-.464.125-.161.339-.161.5-.25 0 .018.446-.25.304-.268.304.036.911-.286.446-.554.071-.161-.161-.232-.321-.268.125-.036.286.036.393-.036.232-.161.071-.232-.125-.286-.25-.071-.571.089-.768.214zM15.696 27.25a11.341 11.341 0 0 0 6.268-3.375c-.107-.107-.304-.071-.446-.143-.143-.054-.25-.107-.429-.143.036-.357-.357-.482-.607-.661-.232-.179-.375-.375-.714-.304-.036.018-.393.143-.321.214-.232-.196-.339-.304-.643-.393-.286-.089-.482-.446-.768-.125-.143.143-.071.357-.143.5-.232-.196.214-.429.036-.643-.214-.25-.589.161-.768.268-.107.089-.232.125-.304.232-.089.125-.125.286-.196.411-.054-.143-.357-.107-.375-.214.071.429.071.875.161 1.304.054.25 0 .661-.214.857s-.482.411-.518.714c-.036.214.018.411.214.464.018.268-.286.464-.268.75 0 .018.018.196.036.286z"></path></svg></svg></g></g></g></g></g><g opacity="1"><g id="subnet-02fce0f92b314c02b"><g><g><polygon transform="translate(-320,74) matrix(-0.707 -0.409 0.707 -0.409 0 0)" points="-1356.75 -1447.2, -1356.75 0, 0 0, 0 -1447.2" stroke-width="11.2" stroke="#795548" stroke-dasharray="16" fill="none"></polygon></g><g><polygon points="-320 74, -352 56, -576 185, -576 222" stroke="#795548" stroke-width="8" fill="#795548"></polygon><text font-family="Inconsolata" font-size="20pt" font-weight="bold" fill="#ffffff" transform="translate(-364 89) matrix(0.707 -0.409 0.707 0.409 0 0)" text-anchor="end">Public</text><g transform="translate(-352 63) matrix(0.707 0.409 -0.707 0.409 0 0)"><svg width="27" height="32" style="fill: rgb(255, 255, 255);"><svg xmlns="http://www.w3.org/2000/svg" width="27" height="32" viewBox="0 0 27 32"><path d="M13.714 2.286c7.571 0 13.714 6.143 13.714 13.714s-6.143 13.714-13.714 13.714S0 23.571 0 16 6.143 2.286 13.714 2.286zm4.893 9.303c-.143.107-.232.304-.411.339.089-.018.179-.339.232-.411.107-.125.25-.196.393-.268.304-.125.607-.161.929-.214.304-.071.679-.071.911.196-.054-.054.375-.429.429-.446.161-.089.429-.054.536-.214.036-.054.036-.393.036-.393-.304.036-.411-.25-.429-.5 0 .018-.036.071-.107.143.018-.268-.321-.071-.446-.107-.411-.107-.357-.393-.482-.696-.071-.161-.268-.214-.339-.375-.071-.107-.107-.339-.268-.357-.107-.018-.304.375-.339.357-.161-.089-.232.036-.357.107-.107.071-.196.036-.304.089.321-.107-.143-.286-.304-.25.25-.071.125-.339-.018-.464h.089c-.036-.161-.536-.304-.696-.411s-1.018-.286-1.196-.179c-.214.125.054.482.054.661.018.214-.214.268-.214.446 0 .304.571.25.429.661-.089.25-.429.304-.571.5-.143.179.018.5.161.625.143.107-.25.286-.304.321-.304.143-.536-.304-.607-.571-.054-.196-.071-.429-.286-.536-.107-.036-.446-.089-.518.018-.107-.268-.482-.375-.732-.464-.357-.125-.661-.125-1.036-.071.125-.018-.036-.571-.339-.482.089-.179.054-.375.089-.554.036-.143.107-.286.214-.411.036-.071.429-.482.304-.5.304.036.643.054.893-.196.161-.161.232-.429.393-.607.232-.268.518.071.768.089.357.018.339-.375.143-.554.232.018.036-.411-.089-.464-.161-.054-.768.107-.446.232-.071-.036-.5.857-.75.411-.071-.089-.107-.464-.268-.482-.143 0-.232.161-.286.268.089-.232-.5-.393-.625-.411.268-.179.054-.375-.143-.482-.143-.089-.589-.161-.714-.018-.339.411.357.464.536.571.054.036.268.161.143.25-.107.054-.429.143-.464.214-.107.161.125.339-.036.5-.161-.161-.161-.429-.286-.607.161.196-.643.089-.625.089-.268 0-.696.179-.893-.089-.036-.071-.036-.482.071-.393-.161-.125-.268-.25-.375-.321-.589.196-1.143.446-1.679.732a.302.302 0 0 0 .214-.018c.143-.054.268-.143.411-.214.179-.071.554-.286.75-.125.018-.036.071-.071.089-.089.125.143.25.286.357.446-.143-.071-.375-.036-.536-.018-.125.036-.339.071-.393.214.054.089.125.232.089.321-.232-.161-.411-.429-.732-.464-.143 0-.286 0-.393.018a11.598 11.598 0 0 0-4.196 3.964.506.506 0 0 0 .214.143c.179.054 0 .571.339.304.107.089.125.214.054.339.018-.018.732.446.786.482.125.107.321.232.375.375.036.125-.071.268-.179.321-.018-.036-.286-.304-.321-.232-.054.089 0 .571.196.554-.286.018-.161 1.125-.232 1.339 0 .018.036.018.036.018-.054.214.125 1.054.482.964-.232.054.411.875.5.929.232.161.5.268.661.5.179.25.179.625.429.821-.071.214.375.464.357.768-.036.018-.054.018-.089.036.089.25.429.25.554.482.071.143 0 .482.232.411.036-.393-.232-.786-.429-1.107-.107-.179-.214-.339-.304-.518-.089-.161-.107-.357-.179-.536.071.018.464.161.429.214-.143.357.571.982.768 1.214.054.054.464.589.25.589.232 0 .554.357.661.536.161.268.125.607.232.893.107.357.607.518.893.679.25.125.464.304.714.393.375.143.464.018.786-.036.464-.071.518.446.893.643.232.125.732.304.982.196-.107.036.375.768.411.821.161.214.464.321.643.536a.283.283 0 0 0 .125-.161c-.071.196.268.571.446.536.196-.036.25-.429.25-.571-.357.179-.679.036-.875-.321-.036-.089-.321-.589-.071-.589.339 0 .107-.268.071-.518s-.286-.411-.411-.625c-.107.214-.464.161-.571-.018 0 .054-.054.143-.054.214-.089 0-.179.018-.268-.018.036-.214.054-.482.107-.714.089-.321.679-.946-.089-.911-.268.018-.375.125-.464.357-.089.214-.054.411-.304.518-.161.071-.696.036-.857-.054-.339-.196-.571-.821-.571-1.179-.018-.482.232-.911 0-1.357.107-.089.214-.268.339-.357.107-.071.232.054.286-.161-.054-.036-.125-.107-.143-.107.268.125.768-.179 1 0 .143.107.304.143.393-.036.018-.054-.125-.268-.054-.411.054.304.25.357.518.161.107.107.393.071.589.179.196.125.232.321.464.054.143.214.161.214.214.429.054.196.161.696.339.786.375.232.286-.393.25-.607-.018-.018-.018-.607-.036-.607-.571-.125-.357-.571-.036-.875.054-.036.464-.179.643-.321.161-.143.357-.393.268-.625.089 0 .161-.071.196-.161-.054-.018-.268-.196-.304-.179.125-.071.107-.179.036-.286.179-.107.089-.304.268-.375.196.268.589-.036.393-.25.179-.25.589-.125.696-.357.268.071.071-.268.214-.464.125-.161.339-.161.5-.25 0 .018.446-.25.304-.268.304.036.911-.286.446-.554.071-.161-.161-.232-.321-.268.125-.036.286.036.393-.036.232-.161.071-.232-.125-.286-.25-.071-.571.089-.768.214zM15.696 27.25a11.341 11.341 0 0 0 6.268-3.375c-.107-.107-.304-.071-.446-.143-.143-.054-.25-.107-.429-.143.036-.357-.357-.482-.607-.661-.232-.179-.375-.375-.714-.304-.036.018-.393.143-.321.214-.232-.196-.339-.304-.643-.393-.286-.089-.482-.446-.768-.125-.143.143-.071.357-.143.5-.232-.196.214-.429.036-.643-.214-.25-.589.161-.768.268-.107.089-.232.125-.304.232-.089.125-.125.286-.196.411-.054-.143-.357-.107-.375-.214.071.429.071.875.161 1.304.054.25 0 .661-.214.857s-.482.411-.518.714c-.036.214.018.411.214.464.018.268-.286.464-.268.75 0 .018.018.196.036.286z"></path></svg></svg></g></g></g></g></g><g opacity="1"><g id="subnet-098ae1347a4774662"><g><g><polygon transform="translate(272,-213) matrix(-0.707 -0.409 0.707 -0.409 0 0)" points="-1175.8500000000001 -633.15, -1221.075 -587.9250000000001, -1221.075 -45.225, -1175.8500000000001 0, 0 0, 0 -587.9250000000001, -45.225 -633.15" stroke-width="11.2" stroke="#d81b60" stroke-dasharray="16" fill="none"></polygon></g><g><polygon points="272 -213, 240 -231, 16 -102, 16 -65" stroke="#d81b60" stroke-width="8" fill="#d81b60"></polygon><text font-family="Inconsolata" font-size="20pt" font-weight="bold" fill="#ffffff" transform="translate(223 -195) matrix(0.707 -0.409 0.707 0.409 0 0)" text-anchor="end">Database</text><g transform="translate(240 -221) matrix(0.707 0.409 -0.707 0.409 0 0)"><svg width="21" height="32" style="fill: rgb(255, 255, 255);"><svg xmlns="http://www.w3.org/2000/svg" width="21" height="32" viewBox="0 0 21 32"><path d="M5.714 13.714h9.143v-3.429c0-2.518-2.054-4.571-4.571-4.571s-4.571 2.054-4.571 4.571v3.429zm14.857 1.715v10.286c0 .946-.768 1.714-1.714 1.714H1.714A1.715 1.715 0 0 1 0 25.715V15.429c0-.946.768-1.714 1.714-1.714h.571v-3.429c0-4.393 3.607-8 8-8s8 3.607 8 8v3.429h.571c.946 0 1.714.768 1.714 1.714z"></path></svg></svg></g></g></g></g></g></g><g pointer-events="auto"><g opacity="1"><g id="1219ca44-fa7d-428d-94bb-752fbebc0848"><g><polygon points="-64 500, 128 611, -64 722, -256 611" fill="#000000" opacity="0.5"></polygon><polygon points="-64 481, 128 592, -64 703, -256 592" fill="#fff"></polygon><polygon points="-256 601, -64 712, -64 703, -256 592" fill="#3d8b40" stroke="#999"></polygon><polygon points="-64 712, 128 601, 128 592, -64 703" fill="#2d682f" stroke="#999"></polygon><polygon points="-64 481, -256 592, -256 601, -64 712, 128 601, 128 592" fill="none" stroke="#000000" stroke-width="2"></polygon><svg x="-83" y="500" overflow="visible"><clipPath id="clip-1219ca44-fa7d-428d-94bb-752fbebc0848"><polygon points="19 -18, 205 89, 13 200, -173 93"></polygon></clipPath><g clip-path="url(#clip-1219ca44-fa7d-428d-94bb-752fbebc0848)" font-family="Open Sans" font-size="25pt" fill="#000000" font-weight="bold"><text stroke="#ffffff" stroke-width="4" transform="matrix(0.707 0.409 -0.707 0.409 0 0)"><tspan>job</tspan></text><text transform="matrix(0.707 0.409 -0.707 0.409 0 0)"><tspan>job</tspan></text></g></svg></g></g></g><g opacity="1"><g id="64d4081f-0a8a-4a19-9ca6-9a30c2262b47"><g><polygon points="-320 352, -128 463, -320 574, -512 463" fill="#000000" opacity="0.5"></polygon><polygon points="-320 333, -128 444, -320 555, -512 444" fill="#fff"></polygon><polygon points="-512 453, -320 564, -320 555, -512 444" fill="#00564d" stroke="#999"></polygon><polygon points="-320 564, -128 453, -128 444, -320 555" fill="#00231f" stroke="#999"></polygon><polygon points="-320 333, -512 444, -512 453, -320 564, -128 453, -128 444" fill="none" stroke="#000000" stroke-width="2"></polygon><svg x="-339" y="352" overflow="visible"><clipPath id="clip-64d4081f-0a8a-4a19-9ca6-9a30c2262b47"><polygon points="19 -18, 205 89, 13 200, -173 93"></polygon></clipPath><g clip-path="url(#clip-64d4081f-0a8a-4a19-9ca6-9a30c2262b47)" font-family="Open Sans" font-size="25pt" fill="#000000" font-weight="bold"><text stroke="#ffffff" stroke-width="4" transform="matrix(0.707 0.409 -0.707 0.409 0 0)"><tspan>web</tspan></text><text transform="matrix(0.707 0.409 -0.707 0.409 0 0)"><tspan>web</tspan></text></g></svg></g></g></g></g><g pointer-events="none"></g><g pointer-events="auto"><g id="68ea70cf-8b06-48a7-8168-5cad35e0b922-bdb2897a-d0fe-4669-b356-a038fcb81556"><g cursor="cell"><line x1="-1144" y1="1105" x2="-1130" y2="1097" stroke="red" stroke-width="8" opacity="0"></line><line x1="-1144" y1="1105" x2="-1130" y2="1097" stroke="#000000" stroke-width="2" stroke-linecap="round"></line><polygon points="-1120 1092, -1146 1097, -1132 1099, -1129 1106, -1120 1092" stroke-linejoin="round" fill="#000000" stroke="#000000" stroke-width="1"></polygon></g></g><g id="2c26d7d3-6c81-4ea7-b718-d7f1a5275263-b052c3f6-b977-4183-b1cf-59247865f9c0"><g cursor="cell"><line x1="416" y1="648" x2="0" y2="888" stroke="red" stroke-width="8" opacity="0"></line><line x1="416" y1="648" x2="0" y2="888" stroke="#000000" stroke-width="2" stroke-dasharray="8,6" stroke-linecap="butt"></line></g></g><g id="2eecf91f-9af4-4e01-8330-3f93bee6e17f-75df9dd7-0699-4a08-9673-676fd775c9cc"><g cursor="cell"><line x1="272" y1="694" x2="800" y2="999" stroke="red" stroke-width="8" opacity="0"></line><line x1="272" y1="694" x2="800" y2="999" stroke="#000000" stroke-width="2" stroke-dasharray="8,6" stroke-linecap="butt"></line></g></g><g id="9b3aecdb-8146-43d5-8ba5-1e8f4b0d3612-32551c08-e4de-4fd2-8be1-64ba2f6f341b"><g cursor="cell"><line x1="0" y1="888" x2="496" y2="1175" stroke="red" stroke-width="8" opacity="0"></line><line x1="0" y1="888" x2="496" y2="1175" stroke="#000000" stroke-width="2" stroke-dasharray="8,6" stroke-linecap="butt"></line></g></g><g id="b18798bb-7a58-45ac-b436-3871e7a13c43-011256bc-9a57-4303-b1a5-c54644e5f39c"><g cursor="cell"><line x1="106" y1="727" x2="160" y2="759" stroke="red" stroke-width="8" opacity="0"></line><line x1="106" y1="727" x2="160" y2="759" stroke="#000000" stroke-width="2" stroke-dasharray="8,6" stroke-linecap="butt"></line><polygon points="96 722, 105 736, 108 729, 122 727, 96 722" stroke-linejoin="round" fill="#000000" stroke="#000000" stroke-width="1"></polygon></g></g><g id="d1918eb5-0bc6-496c-8ec6-60a30b6b73eb-e66e4da4-7ef1-4aac-8515-1521524a926f"><g cursor="cell"><line x1="840" y1="689" x2="432" y2="453" stroke="red" stroke-width="8" opacity="0"></line><line x1="840" y1="689" x2="432" y2="453" stroke="#000000" stroke-width="2" stroke-dasharray="8,6" stroke-linecap="butt"></line><polygon points="850 695, 841 680, 837 688, 824 689, 850 695" stroke-linejoin="round" fill="#000000" stroke="#000000" stroke-width="1"></polygon></g></g><g id="b052c3f6-b977-4183-b1cf-59247865f9c0-e9b56f01-3f51-48f1-8b74-f0d4102d9902"><g cursor="cell"><line x1="0" y1="888" x2="496" y2="1175" stroke="red" stroke-width="8" opacity="0"></line><line x1="0" y1="888" x2="496" y2="1175" stroke="#000000" stroke-width="2" stroke-dasharray="8,6" stroke-linecap="butt"></line></g></g><g id="e66e4da4-7ef1-4aac-8515-1521524a926f-f3964ee3-cbaa-4ebf-98fb-6b1413a84543"><g cursor="cell"><line x1="432" y1="453" x2="192" y2="592" stroke="red" stroke-width="8" opacity="0"></line><line x1="432" y1="453" x2="192" y2="592" stroke="#000000" stroke-width="2" stroke-dasharray="8,6" stroke-linecap="butt"></line></g></g><g id="e4841968-dc75-4714-81a0-7bf032d0d16e-9b3aecdb-8146-43d5-8ba5-1e8f4b0d3612"><g cursor="cell"><line x1="416" y1="648" x2="0" y2="888" stroke="red" stroke-width="8" opacity="0"></line><line x1="416" y1="648" x2="0" y2="888" stroke="#000000" stroke-width="2" stroke-dasharray="8,6" stroke-linecap="butt"></line></g></g><g id="826d3192-6559-4bd8-b17a-117a5b9b01da-c83ada0b-8813-4e7c-8e51-b9555581c0be"><g cursor="cell"><line x1="-3" y1="559" x2="160" y2="500" stroke="red" stroke-width="8" opacity="0"></line><line x1="-3" y1="559" x2="160" y2="500" stroke="#000000" stroke-width="2" stroke-dasharray="8,6" stroke-linecap="butt"></line><polygon points="-15 564, 12 561, 0 558, 0 550, -15 564" stroke-linejoin="round" fill="#000000" stroke="#000000" stroke-width="1"></polygon></g></g><g id="64d4081f-0a8a-4a19-9ca6-9a30c2262b47-89dfd98c-8c82-4e2a-8c32-8f6aa11cc5e7"><g cursor="cell"><line x1="-416" y1="520" x2="-496" y2="583" stroke="red" stroke-width="8" opacity="0"></line><line x1="-416" y1="520" x2="-496" y2="583" stroke="#000000" stroke-width="2" stroke-linecap="round"></line><polygon points="-408 513, -432 521, -418 522, -413 529, -408 513" stroke-linejoin="round" fill="#000000" stroke="#000000" stroke-width="1"></polygon></g></g><g id="d1918eb5-0bc6-496c-8ec6-60a30b6b73eb-c716d8bb-cf87-4a18-95e1-4830b9424a30"><g cursor="cell"><line x1="938" y1="746" x2="1088" y2="833" stroke="red" stroke-width="8" opacity="0"></line><line x1="938" y1="746" x2="1088" y2="833" stroke="#000000" stroke-width="2" stroke-dasharray="8,6" stroke-linecap="butt"></line><polygon points="928 740, 937 755, 940 747, 954 745, 928 740" stroke-linejoin="round" fill="#000000" stroke="#000000" stroke-width="1"></polygon></g></g><g id="244c5250-205a-468d-954c-705c8ad02c50-2c26d7d3-6c81-4ea7-b718-d7f1a5275263"><g cursor="cell"><line x1="-96" y1="352" x2="416" y2="648" stroke="red" stroke-width="8" opacity="0"></line><line x1="-96" y1="352" x2="416" y2="648" stroke="#000000" stroke-width="2" stroke-dasharray="8,6" stroke-linecap="butt"></line></g></g><g id="68ea70cf-8b06-48a7-8168-5cad35e0b922-8c980472-a5eb-4e01-bf2e-3b91f6db6472"><g cursor="cell"><line x1="-1192" y1="1133" x2="-1324" y2="1209" stroke="red" stroke-width="8" opacity="0"></line><line x1="-1192" y1="1133" x2="-1324" y2="1209" stroke="#000000" stroke-width="2" stroke-linecap="round"></line></g></g><g id="011256bc-9a57-4303-b1a5-c54644e5f39c-2eecf91f-9af4-4e01-8330-3f93bee6e17f"><g cursor="cell"><line x1="160" y1="759" x2="272" y2="694" stroke="red" stroke-width="8" opacity="0"></line><line x1="160" y1="759" x2="272" y2="694" stroke="#000000" stroke-width="2" stroke-dasharray="8,6" stroke-linecap="butt"></line></g></g><g id="06dc28ea-4610-4d1a-9628-f67b8799af89-244c5250-205a-468d-954c-705c8ad02c50"><g cursor="cell"><line x1="-259" y1="411" x2="-96" y2="352" stroke="red" stroke-width="8" opacity="0"></line><line x1="-259" y1="411" x2="-96" y2="352" stroke="#000000" stroke-width="2" stroke-dasharray="8,6" stroke-linecap="butt"></line><polygon points="-271 416, -244 413, -256 410, -256 402, -271 416" stroke-linejoin="round" fill="#000000" stroke="#000000" stroke-width="1"></polygon></g></g><g id="ea587575-fa10-4af5-bc05-f0c9c40a9ae1-5b1a5522-b4eb-4a0c-b3f7-10103b9db003"><g cursor="cell"><line x1="-1047" y1="1049" x2="-682" y2="838" stroke="red" stroke-width="8" opacity="0"></line><line x1="-1047" y1="1049" x2="-682" y2="838" stroke="#000000" stroke-width="2" stroke-linecap="round"></line><polygon points="-672 833, -698 838, -684 840, -681 847, -672 833" stroke-linejoin="round" fill="#000000" stroke="#000000" stroke-width="1"></polygon></g></g><g id="64d4081f-0a8a-4a19-9ca6-9a30c2262b47-0bfaaeba-cfdc-4c68-959e-a860a37ea5ec"><g cursor="cell"><line x1="-432" y1="398" x2="-873" y2="161" stroke="red" stroke-width="8" opacity="0"></line><line x1="-432" y1="398" x2="-873" y2="161" stroke="#000000" stroke-width="2" stroke-linecap="round"></line><polygon points="-883 155, -873 170, -870 162, -857 160, -883 155" stroke-linejoin="round" fill="#000000" stroke="#000000" stroke-width="1"></polygon></g></g><g id="5b1a5522-b4eb-4a0c-b3f7-10103b9db003-0ac9cbfc-2500-4ab8-9d9c-ff90931ea0dd"><g cursor="cell"><line x1="-591" y1="786" x2="-512" y2="740" stroke="red" stroke-width="8" opacity="0"></line><line x1="-591" y1="786" x2="-512" y2="740" stroke="#000000" stroke-width="2" stroke-linecap="round"></line></g></g><g id="89dfd98c-8c82-4e2a-8c32-8f6aa11cc5e7-767c9a73-e860-4821-ba74-3b4f1c3edd2d"><g cursor="cell"><line x1="-496" y1="583" x2="-368" y2="657" stroke="red" stroke-width="8" opacity="0"></line><line x1="-496" y1="583" x2="-368" y2="657" stroke="#000000" stroke-width="2" stroke-linecap="round"></line></g></g><g id="c83ada0b-8813-4e7c-8e51-b9555581c0be-e4841968-dc75-4714-81a0-7bf032d0d16e"><g cursor="cell"><line x1="160" y1="500" x2="416" y2="648" stroke="red" stroke-width="8" opacity="0"></line><line x1="160" y1="500" x2="416" y2="648" stroke="#000000" stroke-width="2" stroke-dasharray="8,6" stroke-linecap="butt"></line></g></g><g id="767c9a73-e860-4821-ba74-3b4f1c3edd2d-72eb40bf-767d-4e3c-b908-f3e4476a4272"><g cursor="cell"><line x1="-368" y1="657" x2="-384" y2="666" stroke="red" stroke-width="8" opacity="0"></line><line x1="-368" y1="657" x2="-384" y2="666" stroke="#000000" stroke-width="2" stroke-linecap="round"></line></g></g></g><g pointer-events="auto"><g opacity="1"><g id="fb23e8c7-32a6-4023-bae9-eefd805c8919" transform="translate(0 0)"><svg x="208" y="-55" width="128" height="137.556" viewBox="0 0 33.867 36.395"><g fill="#4286c5" stroke-width=".265" font-family="sans-serif" font-size="3.175"><path fill="#d2d2d4" d="M.187 12.17v14.365l16.587 9.576-.002-14.363-4.146-7.183-8.292-4.788z"></path><path fill="#b8b8bb" d="m20.956 14.565 8.292-4.788 4.145 2.394.001 14.364-16.587 9.577.001-14.365z"></path><path fill="#ececed" d="m4.333 9.777 8.292 4.787h8.295l8.292-4.787v-4.79L20.92.202h-8.294L4.334 4.988zm8.524 4.788h8.293l-4.148 7.182z"></path><path fill="#d2d2d4" d="m4.393 4.806.002 4.789-4.148 2.393zm24.82 4.788-.001-4.788 4.146 7.182z"></path><path fill="none" stroke="#83838a" d="m208.47 90.288 4.345-4.346 4.346 8.693z" transform="matrix(.95417 .55084 -.95417 .55084 -100.053 -150.003)" stroke-linejoin="round" stroke-width=".264"></path><path fill="none" stroke="#83838a" d="m199.734 94.678 13.037 13.037h17.383L217.117 94.68l-8.692-4.347h-8.69zm13.085-8.75v-8.69h4.345l13.037 13.037.001 17.382-13.037-13.037zm-13.085 4.405h8.69l4.347-4.346v-8.69l-4.347-4.347h-8.69l-4.346 4.346v8.69z" transform="matrix(.95417 .55084 -.95417 .55084 -100.053 -150.003)" stroke-linejoin="round" stroke-width=".257"></path><path fill="none" stroke="#000000" d="m212.855 107.631-13.037-13.037-4.346-8.692v-8.69l4.346-4.347h8.69l8.692 4.346 13.038 13.038v17.383z" transform="matrix(.95417 .55084 -.95417 .55084 -100.053 -150.003)" stroke-width=".514"></path><g><path d="M202.697 81.337h.723q1.014 0 1.517-.397.503-.404.503-1.17 0-.772-.425-1.14-.418-.37-1.318-.37h-1zm4.961-1.645q0 1.673-1.049 2.559-1.041.886-2.97.886h-.942v3.685H200.5V76.46h3.31q1.885 0 2.863.816.985.807.985 2.416z" transform="matrix(.95417 .55084 -.95417 .55084 -100.053 -150.003)" font-family="Open Sans" font-size="14.515"></path></g></g></svg></g></g><g opacity="1"><g id="4b07eca1-3218-4568-b364-8e60d91e6404" transform="translate(0 0)"><svg x="624" y="176" width="128" height="147.802" viewBox="0 0 33.867 39.106"><g transform="translate(427.037 -129.28)"><path fill="#821c17" d="M-410.104 163.269v4.812l16.669-9.624v-4.812z" fill-rule="evenodd"></path><path fill="#ad261f" d="M-426.773 153.645v4.812l16.669 9.624v-4.812z" fill-rule="evenodd"></path><path fill="#d82f27" d="m-426.773 153.645 16.669-9.623 16.669 9.623-16.67 9.624z" fill-rule="evenodd"></path><path fill="none" stroke="#2b0908" d="m-426.773 153.645 16.669 9.624 16.669-9.624m-16.669 9.624v4.812" stroke-width=".265"></path><path fill="none" stroke="#2b0908" d="M-426.773 153.645v4.812l16.669 9.624 16.669-9.624v-4.812l-16.67-9.623z" stroke-width=".267"></path><path fill="#821c17" d="M-410.104 156.051v4.812l16.669-9.624v-4.812z" fill-rule="evenodd"></path><path fill="#ad261f" d="M-426.773 146.427v4.812l16.669 9.624v-4.812z" fill-rule="evenodd"></path><path fill="#d82f27" d="m-426.773 146.427 16.669-9.623 16.669 9.623-16.67 9.624z" fill-rule="evenodd"></path><path fill="none" stroke="#2b0908" d="m-426.773 146.427 16.669 9.624 16.669-9.624m-16.669 9.624v4.812" stroke-width=".265"></path><path fill="none" stroke="#2b0908" d="M-426.773 146.427v4.812l16.669 9.624 16.669-9.624v-4.812l-16.67-9.623z" stroke-width=".265"></path><path fill="#821c17" d="M-410.104 148.833v4.812l16.669-9.623v-4.812z" fill-rule="evenodd"></path><path fill="#ad261f" d="M-426.773 139.21v4.812l16.669 9.623v-4.812z" fill-rule="evenodd"></path><path fill="#d82f27" d="m-426.773 139.21 16.669-9.624 16.669 9.624-16.67 9.623z" fill-rule="evenodd"></path><path fill="none" stroke="#2b0908" d="m-426.773 139.21 16.669 9.623 16.669-9.623m-16.669 9.623v4.812" stroke-width=".265"></path><path fill="none" stroke="#2b0908" d="M-426.773 139.21v4.812l16.669 9.623 16.669-9.623v-4.812l-16.67-9.624z" stroke-width=".265"></path><circle cx="-102.876" cy="379.801" r="2.583" fill="#ffffff" transform="matrix(.86532 .50122 -.86532 .50122 0 0)"></circle><path fill="#ffffff" d="m-411.22 137.182-.856-1.635-2.81-.52 2.42-.976-.018-1.709 2.352 1.032 2.8-.538-.966 1.615 1.748 1.376-2.95-.033zm2.183 9.234-5.155-3.026 7.102-1.073z"></path><path fill="#821c17" d="m-401.91 141.896-4.514-2.615 4.515-2.615 4.514 2.615z"></path><path fill="#561310" d="M-401.907 136.666v5.23l4.515-2.615z" fill-rule="evenodd"></path><path fill="none" stroke="#000000" d="m-410.104 129.586-16.669 9.624v4.811l2.084 1.203-2.084 1.203v4.812l2.084 1.203-2.084 1.203v4.812l16.669 9.624 16.669-9.624v-4.812l-2.084-1.203 2.084-1.203v-4.812l-2.084-1.203 2.084-1.203v-4.811z" stroke-width=".529"></path></g></svg></g></g><g opacity="1"><g id="d1918eb5-0bc6-496c-8ec6-60a30b6b73eb" transform="translate(0 0)"><svg x="816" y="592" width="160.197" height="175.731" viewBox="0 0 42.386 46.495"><g fill="#47c531"><path fill="#3f7dde" stroke="#000000" d="M4.234 34.255V29.36l2.12-1.224-2.12-1.224V22.02l2.12-1.223-2.12-1.224v-4.894l7.418-4.283 2.119 1.224V9.172l7.417-4.282 4.239 2.447v2.447l2.12-1.224 4.238 2.447v2.447l2.119-1.223 4.239 2.447v4.894l-2.12 1.224 2.12 1.223v4.894l-2.12 1.224 2.12 1.224v4.894l-7.418 4.282-2.12-1.223v2.447l-7.417 4.282-4.238-2.447v-2.447l-2.12 1.223-4.238-2.447v-2.447l-2.12 1.224z" stroke-width="1.058"></path><path fill="#1b4d9c" d="M21.188-.005V22.02l21.193 12.236V12.23z" fill-opacity=".25"></path><path fill="#2263c8" d="M-.004 34.255V12.23L21.188-.005v22.024z" fill-opacity=".25"></path><path fill="#3f7dde" d="m4.234 29.362 7.418-4.283 4.238 2.447-7.417 4.283z"></path><path fill="#2263c8" d="M4.234 29.362v4.894l4.239 2.447v-4.894z"></path><path fill="#1b4d9c" d="m8.473 31.809 7.417-4.283v4.895l-7.417 4.282z"></path><path fill="none" stroke="#052048" d="M9.532 32.42v2.447m1.06-3.06v2.448m1.06-3.059v2.447m1.059-3.059v2.448m1.06-3.06v2.448m1.06-3.06v2.448" stroke-width=".265"></path><path fill="#3f7dde" d="m26.487 31.197 7.418-4.283 4.238 2.447-7.417 4.283z"></path><path fill="#2263c8" d="M26.487 31.197v4.894l4.239 2.447v-4.894z"></path><path fill="#1b4d9c" d="m30.726 33.644 7.417-4.283v4.895l-7.417 4.282z"></path><path fill="none" stroke="#052048" d="M31.784 34.255v2.447m1.06-3.06v2.448m1.06-3.059v2.447m1.059-3.059v2.448m1.06-3.06v2.448m1.06-3.06v2.448" stroke-width=".265"></path><path fill="#3f7dde" d="m10.592 33.032 7.418-4.283 4.238 2.447-7.417 4.283z"></path><path fill="#2263c8" d="M10.592 33.032v4.894l4.239 2.447v-4.894z"></path><path fill="#1b4d9c" d="m14.83 35.479 7.418-4.283v4.895l-7.417 4.282z"></path><path fill="none" stroke="#052048" d="M15.89 36.09v2.447m1.06-3.06v2.448m1.06-3.059v2.447m1.059-3.059v2.448m1.06-3.06v2.448m1.06-3.06v2.448" stroke-width=".265"></path><path fill="#3f7dde" d="m16.95 36.703 7.418-4.283 4.238 2.447-7.417 4.283z"></path><path fill="#2263c8" d="M16.95 36.703v4.894l4.239 2.447V39.15z"></path><path fill="#1b4d9c" d="m21.189 39.15 7.417-4.283v4.895l-7.417 4.282z"></path><path fill="none" stroke="#052048" d="M22.248 39.76v2.448m1.06-3.06v2.448m1.06-3.059v2.447m1.059-3.059v2.448m1.06-3.06v2.448m1.06-3.06v2.448" stroke-width=".265"></path><path fill="#3f7dde" d="m26.487 23.856 7.418-4.283 4.238 2.447-7.417 4.283z"></path><path fill="#2263c8" d="M26.487 23.856v4.894l4.239 2.447v-4.894z"></path><path fill="#1b4d9c" d="m30.726 26.303 7.417-4.283v4.895l-7.417 4.282z"></path><path fill="none" stroke="#052048" d="M31.784 26.913v2.447m1.06-3.06v2.448m1.06-3.059v2.447m1.059-3.059v2.448m1.06-3.06v2.448m1.06-3.06v2.448" stroke-width=".265"></path><path fill="#3f7dde" d="m4.234 22.02 7.418-4.283 4.238 2.447-7.417 4.283z"></path><path fill="#2263c8" d="M4.234 22.02v4.894l4.239 2.447v-4.894z"></path><path fill="#1b4d9c" d="m8.473 24.467 7.417-4.283v4.895L8.473 29.36z"></path><path fill="none" stroke="#052048" d="M9.532 25.078v2.447m1.06-3.06v2.448m1.06-3.059v2.447m1.059-3.059v2.448m1.06-3.06v2.448m1.06-3.06v2.448" stroke-width=".265"></path><path fill="#3f7dde" d="m10.592 25.69 7.418-4.282 4.238 2.447-7.417 4.283z"></path><path fill="#2263c8" d="M10.592 25.69v4.895l4.239 2.447v-4.894z"></path><path fill="#1b4d9c" d="m14.83 28.138 7.418-4.283v4.895l-7.417 4.282z"></path><path fill="none" stroke="#052048" d="M15.89 28.749v2.447m1.06-3.06v2.448m1.06-3.059v2.447m1.059-3.059v2.448m1.06-3.06v2.448m1.06-3.06v2.448" stroke-width=".265"></path><path fill="#3f7dde" d="m16.95 29.362 7.418-4.283 4.238 2.447-7.417 4.283z"></path><path fill="#2263c8" d="M16.95 29.362v4.894l4.239 2.447v-4.894z"></path><path fill="#1b4d9c" d="m21.189 31.809 7.417-4.283v4.895l-7.417 4.282z"></path><path fill="none" stroke="#052048" d="M22.248 32.42v2.447m1.06-3.06v2.448m1.06-3.059v2.447m1.059-3.059v2.448m1.06-3.06v2.448m1.06-3.06v2.448" stroke-width=".265"></path><path fill="#3f7dde" d="M13.771 9.173 21.19 4.89l4.238 2.447-7.417 4.283z"></path><path fill="#2263c8" d="M13.771 9.173v4.894l4.239 2.447V11.62z"></path><path fill="#1b4d9c" d="m18.01 11.62 7.417-4.283v4.895l-7.417 4.282z"></path><path fill="none" stroke="#052048" d="M19.068 12.23v2.448m1.06-3.06v2.448m1.06-3.059v2.447m1.059-3.059v2.448m1.06-3.06v2.448m1.06-3.06v2.448" stroke-width=".265"></path><path fill="#3f7dde" d="m4.234 14.679 7.418-4.283 4.238 2.447-7.417 4.283z"></path><path fill="#2263c8" d="M4.234 14.679v4.894l4.239 2.447v-4.894z"></path><path fill="#1b4d9c" d="m8.473 17.126 7.417-4.283v4.895L8.473 22.02z"></path><path fill="none" stroke="#052048" d="M9.532 17.737v2.447m1.06-3.06v2.448m1.06-3.059v2.447m1.059-3.059v2.448m1.06-3.06v2.448m1.06-3.06v2.448" stroke-width=".265"></path><path fill="#3f7dde" d="m20.13 12.844 7.417-4.283 4.238 2.447-7.417 4.283z"></path><path fill="#2263c8" d="M20.13 12.844v4.894l4.238 2.447v-4.894z"></path><path fill="#1b4d9c" d="m24.368 15.29 7.417-4.282v4.895l-7.417 4.282z"></path><path fill="none" stroke="#052048" d="M25.426 15.9v2.448m1.06-3.06v2.448m1.06-3.059v2.447m1.059-3.059v2.448m1.06-3.06v2.448m1.06-3.06v2.448" stroke-width=".265"></path><path fill="#3f7dde" d="m10.592 18.35 7.418-4.283 4.238 2.447-7.417 4.283z"></path><path fill="#2263c8" d="M10.592 18.35v4.894l4.239 2.447v-4.894z"></path><path fill="#1b4d9c" d="m14.83 20.797 7.418-4.283v4.895l-7.417 4.282z"></path><path fill="none" stroke="#052048" d="M15.89 21.407v2.447m1.06-3.06v2.448m1.06-3.059v2.447m1.059-3.059v2.448m1.06-3.06v2.448m1.06-3.06v2.448" stroke-width=".265"></path><path fill="#3f7dde" d="m26.487 16.514 7.418-4.283 4.238 2.447-7.417 4.283z"></path><path fill="#2263c8" d="M26.487 16.514v4.894l4.239 2.447v-4.894z"></path><path fill="#1b4d9c" d="m30.726 18.96 7.417-4.282v4.895l-7.417 4.282z"></path><path fill="none" stroke="#052048" d="M31.784 19.573v2.447m1.06-3.06v2.448m1.06-3.059v2.447m1.059-3.059v2.448m1.06-3.06v2.448m1.06-3.06v2.448" stroke-width=".265"></path><path fill="#3f7dde" d="m16.95 22.02 7.418-4.283 4.238 2.447-7.417 4.283z"></path><path fill="#2263c8" d="M16.95 22.02v4.894l4.239 2.447v-4.894z"></path><path fill="#1b4d9c" d="m21.189 24.467 7.417-4.283v4.895L21.19 29.36z"></path><path fill="none" stroke="#052048" d="M22.248 25.078v2.447m1.06-3.06v2.448m1.06-3.059v2.447m1.059-3.059v2.448m1.06-3.06v2.448m1.06-3.06v2.448" stroke-width=".265"></path><g fill="none"><path d="m21.193 1.773 18.122 10.463-18.122 10.462L3.07 12.236Z"></path><path d="m21.193 1.773 18.122 10.463-18.122 10.462L3.07 12.236Z" opacity=".87"></path></g><path fill="#3f7dde" d="M-.004 12.23 21.188-.004l21.193 12.236-21.193 12.235z" fill-opacity=".25"></path><path fill="#1b4d9c" d="M21.188 46.49V24.466l21.193-12.235v22.023z" fill-opacity=".25"></path><path fill="#2263c8" d="m-.004 12.23 21.192 12.236V46.49L-.004 34.255z" fill-opacity=".25"></path><path fill="#ffffff" d="m19.573 10.087-5.347 3.087 6.417 3.705 5.347-3.088z" fill-opacity=".25"></path><path fill="#052048" d="m27.06 13.174-.535-.309 1.07-.617c1.475-.852 1.475-2.235 0-3.088-1.477-.851-3.872-.851-5.348 0l-1.07.618-.534-.309c-.589-.34-1.551-.34-2.14 0l-5.347 3.088c-.588.34-.588.895 0 1.234l6.417 3.705c.588.34 1.55.34 2.139 0l5.347-3.087c.589-.34.589-.895 0-1.235zm-3.744-3.396c.888-.513 2.321-.513 3.209 0 .887.512.887 1.34 0 1.852l-1.07.618-3.208-1.853zm-2.673 7.1-6.417-3.704 5.347-3.087 6.417 3.704zM19.038 14.1c.589.34 1.55.34 2.14 0 .587-.34.587-.895 0-1.235-.589-.34-1.551-.34-2.14 0-.588.34-.588.895 0 1.235z"></path></g></svg></g></g><g opacity="1"><g id="e74f45c9-9c4e-4673-9350-5c975c8a6177" transform="translate(0 0)"><svg x="1192" y="857" width="63" height="95.068" viewBox="0 0 16.669 25.153"><path fill="#000" stroke="#000000" d="M16.668 22.903q0 1.64-.864 2.09-.865.452-2.296-.375L3.161 18.645q-1.432-.828-2.296-2.276Q.001 14.92 0 13.279q0-.724.042-1.39.042-.667.166-1.394.124-.728.313-1.303.19-.574.51-1.038.32-.464.733-.684.415-.219 1.013-.146.598.073 1.32.489.106.061.497.58.39.52.881 1.166.492.645 1.28 1.394.787.749 1.58 1.206.793.458 1.58.619.788.16 1.279.082.491-.078.882-.147.39-.068.497-.007.722.417 1.32 1.036.598.618 1.012 1.315.414.697.734 1.53.32.834.509 1.627.19.793.314 1.665.124.871.165 1.585.042.714.042 1.439zM12.88 8.509q0 2.173-1.331 2.942-1.332.77-3.214-.317T5.121 7.74Q3.789 5.434 3.789 3.26q0-2.173 1.332-2.942 1.332-.769 3.214.318 1.882 1.086 3.214 3.393 1.331 2.307 1.331 4.48z" stroke-width=".268"></path></svg></g></g><g opacity="1"><g id="6eab507e-a546-495d-8198-6b634be67ec1" transform="translate(0 0)"><svg x="888" y="1033" width="63" height="95.068" viewBox="0 0 16.669 25.153"><path fill="#000" stroke="#000000" d="M16.668 22.903q0 1.64-.864 2.09-.865.452-2.296-.375L3.161 18.645q-1.432-.828-2.296-2.276Q.001 14.92 0 13.279q0-.724.042-1.39.042-.667.166-1.394.124-.728.313-1.303.19-.574.51-1.038.32-.464.733-.684.415-.219 1.013-.146.598.073 1.32.489.106.061.497.58.39.52.881 1.166.492.645 1.28 1.394.787.749 1.58 1.206.793.458 1.58.619.788.16 1.279.082.491-.078.882-.147.39-.068.497-.007.722.417 1.32 1.036.598.618 1.012 1.315.414.697.734 1.53.32.834.509 1.627.19.793.314 1.665.124.871.165 1.585.042.714.042 1.439zM12.88 8.509q0 2.173-1.331 2.942-1.332.77-3.214-.317T5.121 7.74Q3.789 5.434 3.789 3.26q0-2.173 1.332-2.942 1.332-.769 3.214.318 1.882 1.086 3.214 3.393 1.331 2.307 1.331 4.48z" stroke-width=".268"></path></svg></g></g><g opacity="1"><g id="0bfaaeba-cfdc-4c68-959e-a860a37ea5ec" transform="translate(0 0)"><svg x="-947" y="46" width="100.625" height="115.695" viewBox="0 0 26.624 30.611"><path fill="#4286c5" d="M13.312.306v15l12.99-7.5z" fill-rule="evenodd"></path><path fill="#26527b" d="m.321 7.806 12.99 7.5v-15z" fill-rule="evenodd"></path><path fill="none" stroke="#020406" d="M13.312.306v15" stroke-width=".265"></path><path fill="#26527b" d="m13.312 15.306 12.99-7.5-6.495 18.75-6.495 3.75z" fill-rule="evenodd"></path><path fill="#326ca2" d="m.321 7.806 12.99 7.5v15l-6.494-3.75z" fill-rule="evenodd"></path><path fill="none" stroke="#0e1e2d" d="m.321 7.806 12.99 7.5 12.991-7.5-12.99 7.5v15" stroke-width=".265"></path><path fill="none" stroke="#000000" d="m13.312.306-12.99 7.5 6.495 18.75 6.495 3.75 6.495-3.75 6.495-18.75z" stroke-width=".529"></path></svg></g></g><g opacity="1"><g id="06dc28ea-4610-4d1a-9628-f67b8799af89" transform="translate(0 0)"><svg x="-373" y="394" width="106.128" height="80.616" viewBox="0 0 28.08 21.33"><path fill="#232323" stroke="#000" d="M.265 10.053v4.894l10.596 6.118v-4.894zm10.596 6.118h6.358v4.894h-6.358z" stroke-width=".265"></path><path fill="#090909" stroke="#000" d="m17.219 21.065 10.596-6.118v-4.894l-10.596 6.118z" stroke-width=".265"></path><path fill="#3c3c3c" stroke="#000" d="M27.815 10.053v-3.67L17.219.265h-6.358L.264 6.382v3.671l10.597 6.118h6.358z" stroke-width=".265"></path><path fill="none" stroke="#000000" d="m.265 14.947 10.596 6.118h6.358l10.596-6.118V6.383L17.219.265h-6.358L.264 6.383Z" stroke-width=".529"></path><g fill="#ff9800"><path d="m11.211 2.617.666.385-6.87 3.967-.667-.385zm1.872 1.081.666.385-6.871 3.966-.666-.384zm8.12 4.688.666.384-6.871 3.967-.666-.385zm1.871 1.08.666.385-6.87 3.967-.667-.385zM13.48 10.8 9.57 8.543a.796.46 0 0 1 0-.65l3.91-2.258a.796.46 0 0 1 1.126 0l3.91 2.258a.796.46 0 0 1 0 .65l-3.91 2.257a.796.46 0 0 1-1.126 0zm-3.14-2.582 3.703 2.138 3.704-2.138-3.704-2.139z"></path><path d="m14.958 5.142.666.385-.936.54-.666-.385zm1.249.721.666.385-.936.54-.666-.385zm1.249.721.666.385-.936.54-.666-.385zm1.249.721.666.385-.936.54-.666-.385zm-9.053.9.667.385-.936.54-.667-.385zm1.25.721.665.385-.935.54-.667-.385zm1.248.721.666.385-.936.54-.666-.385zm1.25.721.665.385-.936.54-.666-.385z"></path><path d="m13.126 5.142.936.54-.666.385-.936-.54zm-1.249.721.936.54-.666.385-.936-.54zm-1.249.721.936.54-.666.385-.936-.54zm-1.249.721.936.54-.666.385-.936-.54zm9.053.9.935.54-.666.385-.936-.54zm-1.25.721.936.54-.666.385-.936-.54zm-1.248.721.936.54-.667.385-.936-.54zm-1.25.721.937.54-.667.385-.935-.54z"></path></g></svg></g></g><g opacity="1"><g id="826d3192-6559-4bd8-b17a-117a5b9b01da" transform="translate(0 0)"><svg x="-117" y="542" width="106.128" height="80.616" viewBox="0 0 28.08 21.33"><path fill="#232323" stroke="#000" d="M.265 10.053v4.894l10.596 6.118v-4.894zm10.596 6.118h6.358v4.894h-6.358z" stroke-width=".265"></path><path fill="#090909" stroke="#000" d="m17.219 21.065 10.596-6.118v-4.894l-10.596 6.118z" stroke-width=".265"></path><path fill="#3c3c3c" stroke="#000" d="M27.815 10.053v-3.67L17.219.265h-6.358L.264 6.382v3.671l10.597 6.118h6.358z" stroke-width=".265"></path><path fill="none" stroke="#000000" d="m.265 14.947 10.596 6.118h6.358l10.596-6.118V6.383L17.219.265h-6.358L.264 6.383Z" stroke-width=".529"></path><g fill="#ff9800"><path d="m11.211 2.617.666.385-6.87 3.967-.667-.385zm1.872 1.081.666.385-6.871 3.966-.666-.384zm8.12 4.688.666.384-6.871 3.967-.666-.385zm1.871 1.08.666.385-6.87 3.967-.667-.385zM13.48 10.8 9.57 8.543a.796.46 0 0 1 0-.65l3.91-2.258a.796.46 0 0 1 1.126 0l3.91 2.258a.796.46 0 0 1 0 .65l-3.91 2.257a.796.46 0 0 1-1.126 0zm-3.14-2.582 3.703 2.138 3.704-2.138-3.704-2.139z"></path><path d="m14.958 5.142.666.385-.936.54-.666-.385zm1.249.721.666.385-.936.54-.666-.385zm1.249.721.666.385-.936.54-.666-.385zm1.249.721.666.385-.936.54-.666-.385zm-9.053.9.667.385-.936.54-.667-.385zm1.25.721.665.385-.935.54-.667-.385zm1.248.721.666.385-.936.54-.666-.385zm1.25.721.665.385-.936.54-.666-.385z"></path><path d="m13.126 5.142.936.54-.666.385-.936-.54zm-1.249.721.936.54-.666.385-.936-.54zm-1.249.721.936.54-.666.385-.936-.54zm-1.249.721.936.54-.666.385-.936-.54zm9.053.9.935.54-.666.385-.936-.54zm-1.25.721.936.54-.666.385-.936-.54zm-1.248.721.936.54-.667.385-.936-.54zm-1.25.721.937.54-.667.385-.935-.54z"></path></g></svg></g></g><g opacity="1"><g id="577ae068-b9c6-4d0e-b7e7-ac076061bb1c" transform="translate(0 0)"><svg x="584" y="1209" width="63" height="95.068" viewBox="0 0 16.669 25.153"><path fill="#000" stroke="#000000" d="M16.668 22.903q0 1.64-.864 2.09-.865.452-2.296-.375L3.161 18.645q-1.432-.828-2.296-2.276Q.001 14.92 0 13.279q0-.724.042-1.39.042-.667.166-1.394.124-.728.313-1.303.19-.574.51-1.038.32-.464.733-.684.415-.219 1.013-.146.598.073 1.32.489.106.061.497.58.39.52.881 1.166.492.645 1.28 1.394.787.749 1.58 1.206.793.458 1.58.619.788.16 1.279.082.491-.078.882-.147.39-.068.497-.007.722.417 1.32 1.036.598.618 1.012 1.315.414.697.734 1.53.32.834.509 1.627.19.793.314 1.665.124.871.165 1.585.042.714.042 1.439zM12.88 8.509q0 2.173-1.331 2.942-1.332.77-3.214-.317T5.121 7.74Q3.789 5.434 3.789 3.26q0-2.173 1.332-2.942 1.332-.769 3.214.318 1.882 1.086 3.214 3.393 1.331 2.307 1.331 4.48z" stroke-width=".268"></path></svg></g></g><g opacity="1"><g id="5b1a5522-b4eb-4a0c-b3f7-10103b9db003" transform="translate(0 0)"><svg x="-688" y="749" width="97" height="94" fill-rule="evenodd" stroke-miterlimit="1"><path fill="#ececed" d="M0 18.6v18.6l32.333 18.6h32.334L97 37.2V18.6L64.667 0H32.333L0 18.6Z"></path><path fill="#b8b8bb" d="M64.667 55.8 97 37.2v37.2L64.667 93V55.8Z"></path><path fill="#d2d2d4" d="M32.333 55.8h32.334V93H32.333V55.8ZM0 37.2v37.2L32.333 93V55.8L0 37.2Z"></path><path fill="none" stroke="#83838a" d="M.955 37.877 32.333 55.8h32.334l31.378-17.923M32.333 55.8v36.211M64.667 55.8v36.574" stroke-width="1.04"></path><path fill="#000000" d="M97 18.6v55.8L64.667 93H32.333L0 74.4V18.6L32.333 0h32.334L97 18.6ZM32.865 1.989 1.989 19.751v53.498l30.876 17.762h31.27l30.876-17.762V19.751L64.135 1.989h-31.27Z"></path><path fill="#4286c5" d="M69.912 15.583c11.818 6.798 11.818 17.836 0 24.635-11.817 6.798-31.007 6.798-42.824 0-11.818-6.799-11.818-17.837 0-24.635 11.817-6.799 31.007-6.799 42.824 0Z"></path><path fill="#ffffff" d="M49.584 14.774c1.824 1.049 1.824 2.753 0 3.802-1.824 1.05-4.786 1.05-6.61 0-1.824-1.049-1.824-2.753 0-3.802 1.824-1.05 4.786-1.05 6.61 0Zm10.867 6.251c1.825 1.049 1.825 2.753 0 3.803-1.824 1.049-4.786 1.049-6.61 0-1.824-1.05-1.824-2.754 0-3.803s4.786-1.049 6.61 0Zm10.868 6.251c1.824 1.05 1.824 2.754 0 3.803-1.825 1.049-4.787 1.049-6.611 0-1.824-1.049-1.824-2.753 0-3.803 1.824-1.049 4.786-1.049 6.611 0Zm-32.822 6.378c1.824 1.05 1.824 2.754 0 3.803-1.825 1.05-4.787 1.05-6.611 0-1.824-1.049-1.824-2.753 0-3.803 1.824-1.049 4.786-1.049 6.611 0Z"></path><path fill="#ffffff" d="M47.458 15.878c.453.26.393.717-.133 1.02-.526.303-1.32.337-1.773.076-.452-.26-.392-.717.133-1.019.526-.303 1.321-.337 1.773-.077Z"></path><path fill="#4286c5" d="M48.111 15.621c1.012.582 1.012 1.526 0 2.108-1.011.582-2.653.582-3.664 0-1.012-.582-1.012-1.526 0-2.108 1.011-.582 2.653-.582 3.664 0Zm10.867 6.251c1.012.582 1.012 1.527 0 2.108-1.011.582-2.653.582-3.664 0-1.012-.581-1.012-1.526 0-2.108 1.011-.581 2.653-.581 3.664 0Zm10.868 6.252c1.011.581 1.011 1.526 0 2.108-1.012.582-2.654.582-3.665 0-1.011-.582-1.011-1.527 0-2.108 1.011-.582 2.653-.582 3.665 0Z"></path><path fill="#ffffff" d="M37.024 34.502c1.011.582 1.011 1.526 0 2.108-1.012.582-2.654.582-3.665 0-1.011-.582-1.011-1.526 0-2.108 1.011-.582 2.653-.582 3.665 0Zm15.277-9.33L37.719 33.56l.482.834 14.584-8.388-.484-.834Z"></path><path fill="#ffffff" stroke="#ffffff" d="m46.993 26.089 6.654-1.146-4.324 5.168c.189-1.691-.757-3.313-2.33-4.022Z" stroke-width=".36"></path><path fill="#ffffff" d="m43.488 19.937-6.057 13.797.886.387 6.056-13.798-.885-.386Z"></path><path fill="#ffffff" stroke="#ffffff" d="m39.76 23.812 4.676-4.854-.405 6.716c-.855-1.474-2.582-2.221-4.271-1.862Z" stroke-width=".36"></path><path fill="#ffffff" d="m61.953 30.061-23.985 3.483.14.955 23.985-3.486-.14-.952Z"></path><path fill="#ffffff" stroke="#ffffff" d="m56.68 28.957 6.608 1.387-5.936 3.209c.804-1.503.526-3.358-.672-4.596Z" stroke-width=".36"></path><path fill="#ffffff" stroke="#ffffff" d="m37.96 33.977 13.12-7.547m-13.207 7.497 5.792-13.134m-5.628 13.229 22.478-3.281" stroke-width="1.93"></path></svg></g></g><g opacity="1"><g id="ea587575-fa10-4af5-bc05-f0c9c40a9ae1" transform="translate(0 0)"><svg x="-1136" y="953" width="93" height="148.142" viewBox="0 0 24.606 39.196"><g transform="translate(-90.671 -137.288)"><path fill="#ececed" d="m91.985 141.821 14.632 8.448 7.316-4.224-14.632-8.447z" fill-rule="evenodd"></path><path fill="#d2d2d4" d="m91.985 165.958-1.045 1.81v-1.207z" fill-rule="evenodd"></path><path fill="#d2d2d4" d="m91.985 165.958 14.632 8.447-1.046 1.81-14.566-8.56zm14.632 8.447-1.046 1.81h2.09z" fill-rule="evenodd"></path><path fill="#d2d2d4" d="M91.985 141.821v24.137l14.632 8.447V150.27z" fill-rule="evenodd"></path><path fill="#b8b8bb" d="m106.617 174.405 1.045 1.81 7.316-4.223v-1.207l-1.045-.603z" fill-rule="evenodd"></path><path fill="#b8b8bb" d="m106.617 150.27 7.316-4.225v24.137l-7.316 4.223z" fill-rule="evenodd"></path><path fill="none" stroke="#83838a" d="m113.933 170.182-7.316 4.223-14.632-8.447-1.045 1.81m1.046-25.947 14.631 8.448 7.316-4.224m-7.316 4.224v24.136m-1.045 1.81 1.045-1.81 1.045 1.81m6.271-6.033 1.045 1.81" stroke-width=".268"></path><path fill="none" stroke="#000000" d="M90.94 167.768v-1.207l1.045-.603V141.82l7.316-4.223 14.632 8.447v24.137l1.045.603v1.207l-7.316 4.224h-2.09z" stroke-width=".529"></path><ellipse cx="141.009" cy="74.394" fill="#4286c5" rx="6.047" ry="4.714" transform="matrix(.19572 .98066 .96381 .26658 0 0)"></ellipse><ellipse cx="141.009" cy="74.394" fill="#ffffff" rx="5.037" ry="3.927" transform="matrix(.19572 .98066 .96381 .26658 0 0)"></ellipse><path fill="none" stroke="#4286c5" d="M99.03 153.24c-3.066 2.889-1.033 7.409.271 9.7" stroke-width=".52"></path><g transform="translate(374.17 163.896) scale(.26818)"><ellipse cx="272.14" cy="-1124.64" fill="#4286c5" rx="3.335" ry="2.648" transform="matrix(.19572 .98066 .96381 .26658 0 0)"></ellipse><ellipse cx="290.38" cy="-1128.297" fill="#4286c5" rx="3.687" ry="2.835" transform="matrix(.19572 .98066 .96381 .26658 0 0)"></ellipse><ellipse cx="290.282" cy="-1113.221" fill="#4286c5" rx="3.51" ry="2.717" transform="matrix(.19572 .98066 .96381 .26658 0 0)"></ellipse><path fill="none" stroke="#4286c5" d="M-1033.087-41.48c4.26 21.344 17.38 30.943 23.61 33.65" stroke-width="1.938"></path><path fill="none" stroke="#4286c5" d="M-1039.896-25.075c12.675 15.122 22.864 16.4 30.106 8.948" stroke-width="1.938"></path></g></g></svg></g></g><g opacity="1"><g id="8c980472-a5eb-4e01-bf2e-3b91f6db6472" transform="translate(0 0)"><svg x="-1384" y="1144" width="63" height="95.068" viewBox="0 0 16.669 25.153"><path fill="#000" stroke="#000000" d="M16.668 22.903q0 1.64-.864 2.09-.865.452-2.296-.375L3.161 18.645q-1.432-.828-2.296-2.276Q.001 14.92 0 13.279q0-.724.042-1.39.042-.667.166-1.394.124-.728.313-1.303.19-.574.51-1.038.32-.464.733-.684.415-.219 1.013-.146.598.073 1.32.489.106.061.497.58.39.52.881 1.166.492.645 1.28 1.394.787.749 1.58 1.206.793.458 1.58.619.788.16 1.279.082.491-.078.882-.147.39-.068.497-.007.722.417 1.32 1.036.598.618 1.012 1.315.414.697.734 1.53.32.834.509 1.627.19.793.314 1.665.124.871.165 1.585.042.714.042 1.439zM12.88 8.509q0 2.173-1.331 2.942-1.332.77-3.214-.317T5.121 7.74Q3.789 5.434 3.789 3.26q0-2.173 1.332-2.942 1.332-.769 3.214.318 1.882 1.086 3.214 3.393 1.331 2.307 1.331 4.48z" stroke-width=".268"></path></svg></g></g></g><g pointer-events="auto"></g><g pointer-events="auto"><g opacity="1"><g id="3d1781b6-b958-4124-bd94-af523ea744a0" transform="translate(0 0)"><svg x="1232" y="823" overflow="visible"><g transform="scale(0.4096000000000001) "><circle cx="0" cy="0" fill="transparent" r="40"></circle><svg width="100" height="100" x="-50" y="-50" style="fill: rgb(255, 255, 255);"><svg xmlns="http://www.w3.org/2000/svg" width="100" height="100" data-name="Layer 1" viewBox="0 0 100 100"><g><path fill="#4b612c" d="M89.17 51.89a7 7 0 0 1-.83-1.25 27.92 27.92 0 0 1-2.66-8.05 33.72 33.72 0 0 0-16-22.28c-6-3.69-12.09-6.09-19.31-5.16-9.55 1.23-17.64 4.79-23.2 13.06a65.9 65.9 0 0 0-7.36 15c-1.71 4.82-1.5 10.1-3.67 14.79a21.24 21.24 0 0 1-1.59 2.69c-1.5 2.29-3.41 4.41-4.48 6.88-2.64 6.07-1.19 9.58 4.69 12.6.6.31 1.22.59 1.85.84 6.86 2.78 22.88 6.22 32.82 2.39a34 34 0 0 0 6.66-2.85C64 76.3 71.9 72 79.76 67.72a33.12 33.12 0 0 0 9.52-7.22c2.55-2.95 2.48-5.7-.11-8.61Z"></path><path fill="#759c3e" d="M61.25 18.56a35 35 0 0 1 11.5 6.76c2.53 2 9.26 8.93 10.81 17.63.16 1.29.26 2.6.51 3.87a5.85 5.85 0 0 0 .85 1.54l.81 2s1.48 2.35 2.29 3.49c1 1.42 1.4 2.88.27 4.36-2.51 3.27-5.82 5.54-9.88 7.65l.41-4.27-2.66-.76c-1 2.28-.39 4 2.13 5.24-2.38 1.26-4.46 2.35-6.53 3.45-6.36 3.4-12.67 6.89-19.08 10.2a30.53 30.53 0 0 1-15.14 3.49 58.78 58.78 0 0 1-17.8-3.43c-2.6-.93-4.67-5-3.87-7.57a2.58 2.58 0 0 1 2.93-1.81c4.46.47 8.91 1 13.36 1.54 4.95.6 9.89 1.67 14.84 1.71 5.61 0 11-1.71 16.24-3.89-1.59.11-3.18.2-4.77.32-4.42.33-8.87.47-13.26 1.05-5.45.72-10.61-.47-15.79-1.76a16.51 16.51 0 0 1-10.09-6.87c-.93-1.39-1.5-3-.78-4.5.58.52 1.22 1.49 1.72 1.43s1.36-.94 1.63-1.63c.68-1.77 1.14-3.63 1.66-5.46a98.49 98.49 0 0 1 2.81-9.83c2.32-5.8 4.77-11.59 8.64-16.58a34.67 34.67 0 0 1 4.77-5.21c2.32-2 5.33-2.68 8.27-3 3.49-.33 7-.16 10.56-.19.2 0 .4.17.6.27Z"></path><path fill="#b7ca9d" d="M83.56 42.95a40.93 40.93 0 0 0-2.33-4.43 11.39 11.39 0 0 0-18.69.06c-2.92 4.09-4.28 8.76-5.06 13.64-.24 1.46-.41 2.94-.67 4.81a16.81 16.81 0 0 1-2.27-8.3c-.28-5.89.56-11.58 4.24-16.49 2.63-3.51 5.74-6.37 10.29-7a20.29 20.29 0 0 1 3.67.12c1.39 1.2 3.05 2.2 4.13 3.63a35.73 35.73 0 0 1 6.4 12 15.08 15.08 0 0 1 .29 1.96Z"></path><path fill="#b7ca9d" d="M61.25 18.56c-5.07 1.41-8 5.16-10.42 9.48-3.46 6.23-6 12.77-5.86 20a30.1 30.1 0 0 0 2.57 12c.18.4.31.82.56 1.48a5 5 0 0 1-4.5-2.31 14.76 14.76 0 0 1-2.6-9.12c.21-9.33 2-18.26 8.1-25.77a39.76 39.76 0 0 1 4.37-4.47 7.84 7.84 0 0 1 5.76-2Z"></path><path fill="#b7ca9d" d="M85.73 50.38c0 2.3-1.59 3.51-3.13 4.74-7.72 6.17-16.71 9.44-26.3 11.21-4.25.79-8.53 1.48-12.82 2-5.23.63-10.12-1.19-15.06-2.48-2-.53-4-1.18-6.07-1.77 0-.22 0-.43.07-.65a16.21 16.21 0 0 1 2.7 0c4 .69 7.93 1.72 11.94 2.11a52.89 52.89 0 0 0 11.08 0 80.61 80.61 0 0 0 20.16-4.72 86.55 86.55 0 0 0 10.92-5.32c2.78-1.56 5.35-3.53 5.7-7.15ZM76.15 60.84c1.92-1.15 3.79-2.39 5.77-3.41a8.13 8.13 0 0 1 2.67-.36l.19.47-6 4.06Z"></path></g></svg></svg></g></svg></g></g><g opacity="1"><g id="68ea70cf-8b06-48a7-8168-5cad35e0b922" transform="translate(0 0)"><svg x="-1168" y="1119" overflow="visible"><g transform="scale(1.4131949617798671) matrix(0.707 0.409 -0.707 0.409 0 0)"><circle cx="0" cy="0" fill="transparent" r="31"></circle><svg width="48" height="48" x="-24" y="-24" style="fill: rgb(255, 255, 255);"><svg xmlns="http://www.w3.org/2000/svg" width="48" height="48" viewBox="0 0 48 48"><g fill="none" fill-rule="evenodd"><path fill="#232F3D" d="M24.111 24.356c.695 0 1.261.565 1.261 1.261a1.262 1.262 0 0 1-2.522 0c0-.696.566-1.261 1.261-1.261Zm-1 4.348v3.392h2v-3.392c1.307-.425 2.261-1.641 2.261-3.087a3.265 3.265 0 0 0-3.261-3.261 3.265 3.265 0 0 0-3.261 3.261c0 1.446.954 2.662 2.261 3.087Zm8.843 4.803L16.261 33.5l.005-12.639 15.694.008-.006 12.638ZM20.066 15.811c.007-2.178 1.833-3.945 4.073-3.945h.014a4.054 4.054 0 0 1 2.868 1.182 3.92 3.92 0 0 1 1.169 2.812v3.007l-8.139-.004.015-3.052Zm12.894 3.058-2.77-.001v-3.005a5.908 5.908 0 0 0-1.758-4.233 6.045 6.045 0 0 0-4.273-1.764h-.02c-3.34 0-6.062 2.66-6.073 5.937l-.015 3.059-2.785-.001a1 1 0 0 0-1 1L14.261 34.5c0 .551.448 1 1 1l17.693.007a1 1 0 0 0 1-1l.006-14.638a1 1 0 0 0-1-1Zm1.272 20.79c-4.692.843-8.648 3.316-10.121 4.332-1.474-1.016-5.43-3.489-10.122-4.332C11.645 39.238 4 37.369 4 30.978c0-2.669 1.009-4.408 2.079-6.25 1.003-1.728 2.04-3.515 2.04-5.959 0-3.686-2.041-6.334-3.176-7.522 1.16-1.412 3.721-4.536 5.122-6.328 2.133 1.947 4.595 3.005 7.033 3.005 2.715 0 4.969-1.072 7.013-3.355 2.043 2.283 4.297 3.355 7.013 3.355 2.438 0 4.9-1.058 7.033-3.005 1.4 1.793 3.961 4.916 5.121 6.328-1.135 1.188-3.176 3.836-3.176 7.522 0 2.444 1.037 4.231 2.04 5.959 1.07 1.842 2.079 3.581 2.079 6.25 0 6.392-7.645 8.26-9.989 8.681Zm9.64-15.935c-.949-1.637-1.77-3.05-1.77-4.955 0-4.023 3.14-6.638 3.169-6.662a1 1 0 0 0 .143-1.414c-.052-.063-5.174-6.268-6.344-7.872a.994.994 0 0 0-.747-.409 1.046 1.046 0 0 0-.791.315c-1.929 2.062-4.204 3.197-6.408 3.197-2.431 0-4.349-1.089-6.219-3.532a1 1 0 0 0-1.588 0c-1.87 2.443-3.788 3.532-6.219 3.532-2.204 0-4.479-1.135-6.408-3.197a.972.972 0 0 0-.791-.315.998.998 0 0 0-.747.408c-1.171 1.605-6.293 7.81-6.345 7.873a1.003 1.003 0 0 0 .141 1.413c.031.025 3.171 2.64 3.171 6.663 0 1.905-.82 3.318-1.77 4.955C3.248 25.621 2 27.771 2 30.978c0 5.36 4.349 9.342 11.635 10.649 5.345.96 9.823 4.354 9.868 4.388a.991.991 0 0 0 1.216 0c.045-.034 4.522-3.428 9.867-4.388 7.286-1.307 11.635-5.289 11.635-10.649 0-3.207-1.248-5.357-2.349-7.254Z"></path></g></svg></svg></g></svg></g></g><g opacity="1"><g id="bda9c1b5-42ce-463d-9ad5-ade8ef2383c5" transform="translate(0 0)"><svg x="624" y="1175" overflow="visible"><g transform="scale(0.4096000000000001) "><circle cx="0" cy="0" fill="transparent" r="40"></circle><svg width="100" height="100" x="-50" y="-50" style="fill: rgb(255, 255, 255);"><svg xmlns="http://www.w3.org/2000/svg" width="100" height="100" data-name="Layer 1" viewBox="0 0 100 100"><g><path fill="#4b612c" d="M89.17 51.89a7 7 0 0 1-.83-1.25 27.92 27.92 0 0 1-2.66-8.05 33.72 33.72 0 0 0-16-22.28c-6-3.69-12.09-6.09-19.31-5.16-9.55 1.23-17.64 4.79-23.2 13.06a65.9 65.9 0 0 0-7.36 15c-1.71 4.82-1.5 10.1-3.67 14.79a21.24 21.24 0 0 1-1.59 2.69c-1.5 2.29-3.41 4.41-4.48 6.88-2.64 6.07-1.19 9.58 4.69 12.6.6.31 1.22.59 1.85.84 6.86 2.78 22.88 6.22 32.82 2.39a34 34 0 0 0 6.66-2.85C64 76.3 71.9 72 79.76 67.72a33.12 33.12 0 0 0 9.52-7.22c2.55-2.95 2.48-5.7-.11-8.61Z"></path><path fill="#759c3e" d="M61.25 18.56a35 35 0 0 1 11.5 6.76c2.53 2 9.26 8.93 10.81 17.63.16 1.29.26 2.6.51 3.87a5.85 5.85 0 0 0 .85 1.54l.81 2s1.48 2.35 2.29 3.49c1 1.42 1.4 2.88.27 4.36-2.51 3.27-5.82 5.54-9.88 7.65l.41-4.27-2.66-.76c-1 2.28-.39 4 2.13 5.24-2.38 1.26-4.46 2.35-6.53 3.45-6.36 3.4-12.67 6.89-19.08 10.2a30.53 30.53 0 0 1-15.14 3.49 58.78 58.78 0 0 1-17.8-3.43c-2.6-.93-4.67-5-3.87-7.57a2.58 2.58 0 0 1 2.93-1.81c4.46.47 8.91 1 13.36 1.54 4.95.6 9.89 1.67 14.84 1.71 5.61 0 11-1.71 16.24-3.89-1.59.11-3.18.2-4.77.32-4.42.33-8.87.47-13.26 1.05-5.45.72-10.61-.47-15.79-1.76a16.51 16.51 0 0 1-10.09-6.87c-.93-1.39-1.5-3-.78-4.5.58.52 1.22 1.49 1.72 1.43s1.36-.94 1.63-1.63c.68-1.77 1.14-3.63 1.66-5.46a98.49 98.49 0 0 1 2.81-9.83c2.32-5.8 4.77-11.59 8.64-16.58a34.67 34.67 0 0 1 4.77-5.21c2.32-2 5.33-2.68 8.27-3 3.49-.33 7-.16 10.56-.19.2 0 .4.17.6.27Z"></path><path fill="#b7ca9d" d="M83.56 42.95a40.93 40.93 0 0 0-2.33-4.43 11.39 11.39 0 0 0-18.69.06c-2.92 4.09-4.28 8.76-5.06 13.64-.24 1.46-.41 2.94-.67 4.81a16.81 16.81 0 0 1-2.27-8.3c-.28-5.89.56-11.58 4.24-16.49 2.63-3.51 5.74-6.37 10.29-7a20.29 20.29 0 0 1 3.67.12c1.39 1.2 3.05 2.2 4.13 3.63a35.73 35.73 0 0 1 6.4 12 15.08 15.08 0 0 1 .29 1.96Z"></path><path fill="#b7ca9d" d="M61.25 18.56c-5.07 1.41-8 5.16-10.42 9.48-3.46 6.23-6 12.77-5.86 20a30.1 30.1 0 0 0 2.57 12c.18.4.31.82.56 1.48a5 5 0 0 1-4.5-2.31 14.76 14.76 0 0 1-2.6-9.12c.21-9.33 2-18.26 8.1-25.77a39.76 39.76 0 0 1 4.37-4.47 7.84 7.84 0 0 1 5.76-2Z"></path><path fill="#b7ca9d" d="M85.73 50.38c0 2.3-1.59 3.51-3.13 4.74-7.72 6.17-16.71 9.44-26.3 11.21-4.25.79-8.53 1.48-12.82 2-5.23.63-10.12-1.19-15.06-2.48-2-.53-4-1.18-6.07-1.77 0-.22 0-.43.07-.65a16.21 16.21 0 0 1 2.7 0c4 .69 7.93 1.72 11.94 2.11a52.89 52.89 0 0 0 11.08 0 80.61 80.61 0 0 0 20.16-4.72 86.55 86.55 0 0 0 10.92-5.32c2.78-1.56 5.35-3.53 5.7-7.15ZM76.15 60.84c1.92-1.15 3.79-2.39 5.77-3.41a8.13 8.13 0 0 1 2.67-.36l.19.47-6 4.06Z"></path></g></svg></svg></g></svg></g></g><g opacity="1"><g id="ffcc7b1e-0aaa-4ad1-9f76-df2c90b1a32c" transform="translate(0 0)"><svg x="928" y="999" overflow="visible"><g transform="scale(0.4096000000000001) "><circle cx="0" cy="0" fill="transparent" r="40"></circle><svg width="100" height="100" x="-50" y="-50" style="fill: rgb(255, 255, 255);"><svg xmlns="http://www.w3.org/2000/svg" width="100" height="100" data-name="Layer 1" viewBox="0 0 100 100"><g><path fill="#4b612c" d="M89.17 51.89a7 7 0 0 1-.83-1.25 27.92 27.92 0 0 1-2.66-8.05 33.72 33.72 0 0 0-16-22.28c-6-3.69-12.09-6.09-19.31-5.16-9.55 1.23-17.64 4.79-23.2 13.06a65.9 65.9 0 0 0-7.36 15c-1.71 4.82-1.5 10.1-3.67 14.79a21.24 21.24 0 0 1-1.59 2.69c-1.5 2.29-3.41 4.41-4.48 6.88-2.64 6.07-1.19 9.58 4.69 12.6.6.31 1.22.59 1.85.84 6.86 2.78 22.88 6.22 32.82 2.39a34 34 0 0 0 6.66-2.85C64 76.3 71.9 72 79.76 67.72a33.12 33.12 0 0 0 9.52-7.22c2.55-2.95 2.48-5.7-.11-8.61Z"></path><path fill="#759c3e" d="M61.25 18.56a35 35 0 0 1 11.5 6.76c2.53 2 9.26 8.93 10.81 17.63.16 1.29.26 2.6.51 3.87a5.85 5.85 0 0 0 .85 1.54l.81 2s1.48 2.35 2.29 3.49c1 1.42 1.4 2.88.27 4.36-2.51 3.27-5.82 5.54-9.88 7.65l.41-4.27-2.66-.76c-1 2.28-.39 4 2.13 5.24-2.38 1.26-4.46 2.35-6.53 3.45-6.36 3.4-12.67 6.89-19.08 10.2a30.53 30.53 0 0 1-15.14 3.49 58.78 58.78 0 0 1-17.8-3.43c-2.6-.93-4.67-5-3.87-7.57a2.58 2.58 0 0 1 2.93-1.81c4.46.47 8.91 1 13.36 1.54 4.95.6 9.89 1.67 14.84 1.71 5.61 0 11-1.71 16.24-3.89-1.59.11-3.18.2-4.77.32-4.42.33-8.87.47-13.26 1.05-5.45.72-10.61-.47-15.79-1.76a16.51 16.51 0 0 1-10.09-6.87c-.93-1.39-1.5-3-.78-4.5.58.52 1.22 1.49 1.72 1.43s1.36-.94 1.63-1.63c.68-1.77 1.14-3.63 1.66-5.46a98.49 98.49 0 0 1 2.81-9.83c2.32-5.8 4.77-11.59 8.64-16.58a34.67 34.67 0 0 1 4.77-5.21c2.32-2 5.33-2.68 8.27-3 3.49-.33 7-.16 10.56-.19.2 0 .4.17.6.27Z"></path><path fill="#b7ca9d" d="M83.56 42.95a40.93 40.93 0 0 0-2.33-4.43 11.39 11.39 0 0 0-18.69.06c-2.92 4.09-4.28 8.76-5.06 13.64-.24 1.46-.41 2.94-.67 4.81a16.81 16.81 0 0 1-2.27-8.3c-.28-5.89.56-11.58 4.24-16.49 2.63-3.51 5.74-6.37 10.29-7a20.29 20.29 0 0 1 3.67.12c1.39 1.2 3.05 2.2 4.13 3.63a35.73 35.73 0 0 1 6.4 12 15.08 15.08 0 0 1 .29 1.96Z"></path><path fill="#b7ca9d" d="M61.25 18.56c-5.07 1.41-8 5.16-10.42 9.48-3.46 6.23-6 12.77-5.86 20a30.1 30.1 0 0 0 2.57 12c.18.4.31.82.56 1.48a5 5 0 0 1-4.5-2.31 14.76 14.76 0 0 1-2.6-9.12c.21-9.33 2-18.26 8.1-25.77a39.76 39.76 0 0 1 4.37-4.47 7.84 7.84 0 0 1 5.76-2Z"></path><path fill="#b7ca9d" d="M85.73 50.38c0 2.3-1.59 3.51-3.13 4.74-7.72 6.17-16.71 9.44-26.3 11.21-4.25.79-8.53 1.48-12.82 2-5.23.63-10.12-1.19-15.06-2.48-2-.53-4-1.18-6.07-1.77 0-.22 0-.43.07-.65a16.21 16.21 0 0 1 2.7 0c4 .69 7.93 1.72 11.94 2.11a52.89 52.89 0 0 0 11.08 0 80.61 80.61 0 0 0 20.16-4.72 86.55 86.55 0 0 0 10.92-5.32c2.78-1.56 5.35-3.53 5.7-7.15ZM76.15 60.84c1.92-1.15 3.79-2.39 5.77-3.41a8.13 8.13 0 0 1 2.67-.36l.19.47-6 4.06Z"></path></g></svg></svg></g></svg></g></g></g><g pointer-events="auto"><g opacity="1"><g id="90b7ab7e-f162-4b80-ae1a-569f48b06544" transform="translate(0 0)"><svg x="-1408" y="1221" overflow="visible"><text stroke="#ffffff" stroke-width="4" font-family="Open Sans" y="36.5" font-size="25pt" fill="#000000" font-weight="bold" transform="matrix(0.707 0.409 -0.707 0.409 0 0)" xml:space="preserve"><tspan x="8" dy="0">User</tspan></text><text font-family="Open Sans" y="36.5" font-size="25pt" fill="#000000" font-weight="bold" transform="matrix(0.707 0.409 -0.707 0.409 0 0)" xml:space="preserve"><tspan x="8" dy="0">User</tspan></text></svg></g></g><g opacity="1"><g id="0b28008e-6167-447f-a09d-beb7fbba4b18" transform="translate(0 0)"><svg x="-944" y="157" overflow="visible"><text stroke="#ffffff" stroke-width="4" font-family="Open Sans" y="46.76" font-size="34pt" fill="#ffc107" font-weight="bold" transform="matrix(0.707 0.409 -0.707 0.409 0 0)" xml:space="preserve"><tspan x="8" dy="0">S3</tspan></text><text font-family="Open Sans" y="46.76" font-size="34pt" fill="#ffc107" font-weight="bold" transform="matrix(0.707 0.409 -0.707 0.409 0 0)" xml:space="preserve"><tspan x="8" dy="0">S3</tspan></text></svg></g></g><g opacity="1"><g id="4e05f3a4-72cc-481a-a549-751feb760244"><svg x="192" y="37" overflow="visible"><text stroke="#ffffff" stroke-width="4" font-family="Open Sans" y="26.24" font-size="16pt" fill="#000000" font-weight="bold" transform="matrix(0.707 0.409 -0.707 0.409 0 0)" xml:space="preserve"><tspan x="8" dy="0">PostgreSQL</tspan></text><text font-family="Open Sans" y="26.24" font-size="16pt" fill="#000000" font-weight="bold" transform="matrix(0.707 0.409 -0.707 0.409 0 0)" xml:space="preserve"><tspan x="8" dy="0">PostgreSQL</tspan></text></svg></g></g><g opacity="1"><g id="416c1ebc-7c7e-4fd5-b2bb-4b355a9d7afd" transform="translate(0 0)"><svg x="960" y="999" overflow="visible"><text stroke="#ffffff" stroke-width="4" font-family="Open Sans" y="30.799999999999997" font-size="20pt" fill="#000000" font-weight="bold" transform="matrix(0.707 0.409 -0.707 0.409 0 0)" xml:space="preserve"><tspan x="8" dy="0">ECS Service Access</tspan></text><text font-family="Open Sans" y="30.799999999999997" font-size="20pt" fill="#000000" font-weight="bold" transform="matrix(0.707 0.409 -0.707 0.409 0 0)" xml:space="preserve"><tspan x="8" dy="0">ECS Service Access</tspan></text></svg></g></g><g opacity="1"><g id="f86c7add-38f8-4269-b1ee-41c7c7ba4798" transform="translate(0 0)"><svg x="1264" y="823" overflow="visible"><text stroke="#ffffff" stroke-width="4" font-family="Open Sans" y="30.799999999999997" font-size="20pt" fill="#000000" font-weight="bold" transform="matrix(0.707 0.409 -0.707 0.409 0 0)" xml:space="preserve"><tspan x="8" dy="0">ECR Access</tspan></text><text font-family="Open Sans" y="30.799999999999997" font-size="20pt" fill="#000000" font-weight="bold" transform="matrix(0.707 0.409 -0.707 0.409 0 0)" xml:space="preserve"><tspan x="8" dy="0">ECR Access</tspan></text></svg></g></g><g opacity="1"><g id="215203ae-c19e-4f0a-94a2-40f84f8ebdea"><svg x="624" y="287" overflow="visible"><text stroke="#ffffff" stroke-width="0" font-family="Open Sans" y="26.24" font-size="16pt" fill="#000000" font-weight="bold" transform="matrix(0.707 0.409 -0.707 0.409 0 0)" xml:space="preserve"><tspan x="8" dy="0">Redis</tspan></text><text font-family="Open Sans" y="26.24" font-size="16pt" fill="#000000" font-weight="bold" transform="matrix(0.707 0.409 -0.707 0.409 0 0)" xml:space="preserve"><tspan x="8" dy="0">Redis</tspan></text></svg></g></g><g opacity="1"><g id="ce9c0244-dc42-405a-b75b-8793313e67e2" transform="translate(0 0)"><svg x="1168" y="934" overflow="visible"><text stroke="#ffffff" stroke-width="4" font-family="Open Sans" y="36.5" font-size="25pt" fill="#000000" font-weight="bold" transform="matrix(0.707 0.409 -0.707 0.409 0 0)" xml:space="preserve"><tspan x="8" dy="0">Dev</tspan></text><text font-family="Open Sans" y="36.5" font-size="25pt" fill="#000000" font-weight="bold" transform="matrix(0.707 0.409 -0.707 0.409 0 0)" xml:space="preserve"><tspan x="8" dy="0">Dev</tspan></text></svg></g></g><g opacity="1"><g id="8707d0fb-565a-4536-9b01-34392f797393"><svg x="816" y="731" overflow="visible"><text stroke="#ffffff" stroke-width="4" font-family="Open Sans" y="46.76" font-size="34pt" fill="#f5b720" font-weight="bold" transform="matrix(0.707 0.409 -0.707 0.409 0 0)" xml:space="preserve"><tspan x="8" dy="0">ECR</tspan></text><text font-family="Open Sans" y="46.76" font-size="34pt" fill="#f5b720" font-weight="bold" transform="matrix(0.707 0.409 -0.707 0.409 0 0)" xml:space="preserve"><tspan x="8" dy="0">ECR</tspan></text></svg></g></g><g opacity="1"><g id="1a030fee-20e2-4a04-b4e3-e21df3d0aa18" transform="translate(0 0)"><svg x="976" y="768" overflow="visible"><text stroke="#ffffff" stroke-width="4" font-family="Open Sans" y="23.96" font-size="14pt" fill="#9e9e9e" font-weight="bold" transform="matrix(0.707 0.409 -0.707 0.409 0 0)" xml:space="preserve"><tspan x="8" dy="0">Docker Push</tspan></text><text font-family="Open Sans" y="23.96" font-size="14pt" fill="#9e9e9e" font-weight="bold" transform="matrix(0.707 0.409 -0.707 0.409 0 0)" xml:space="preserve"><tspan x="8" dy="0">Docker Push</tspan></text></svg></g></g><g opacity="1"><g id="9cac0042-f80d-44dd-b2e7-550e66b73953" transform="translate(0 0)"><svg x="672" y="925" overflow="visible"><text stroke="#ffffff" stroke-width="4" font-family="Open Sans" y="23.96" font-size="14pt" fill="#9e9e9e" font-weight="bold" transform="matrix(0.707 0.409 -0.707 0.409 0 0)" xml:space="preserve"><tspan x="8" dy="0">Update Service</tspan></text><text font-family="Open Sans" y="23.96" font-size="14pt" fill="#9e9e9e" font-weight="bold" transform="matrix(0.707 0.409 -0.707 0.409 0 0)" xml:space="preserve"><tspan x="8" dy="0">Update Service</tspan></text></svg></g></g><g opacity="1"><g id="bcfd9898-9f3c-4010-93be-ab5b8f6c6b96" transform="translate(0 0)"><svg x="656" y="1175" overflow="visible"><text stroke="#ffffff" stroke-width="4" font-family="Open Sans" y="30.799999999999997" font-size="20pt" fill="#000000" font-weight="bold" transform="matrix(0.707 0.409 -0.707 0.409 0 0)" xml:space="preserve"><tspan x="8" dy="0">ECS Task Access</tspan></text><text font-family="Open Sans" y="30.799999999999997" font-size="20pt" fill="#000000" font-weight="bold" transform="matrix(0.707 0.409 -0.707 0.409 0 0)" xml:space="preserve"><tspan x="8" dy="0">ECS Task Access</tspan></text></svg></g></g><g opacity="1"><g id="63d51b0c-f0d0-4dad-93e4-5e6decbc873c" transform="translate(0 0)"><svg x="560" y="1286" overflow="visible"><text stroke="#ffffff" stroke-width="4" font-family="Open Sans" y="36.5" font-size="25pt" fill="#000000" font-weight="bold" transform="matrix(0.707 0.409 -0.707 0.409 0 0)" xml:space="preserve"><tspan x="8" dy="0">Dev</tspan></text><text font-family="Open Sans" y="36.5" font-size="25pt" fill="#000000" font-weight="bold" transform="matrix(0.707 0.409 -0.707 0.409 0 0)" xml:space="preserve"><tspan x="8" dy="0">Dev</tspan></text></svg></g></g><g opacity="1"><g id="c9fb6bd8-ebc3-4c3e-aa31-0683f4f0441b" transform="translate(0 0)"><svg x="864" y="1110" overflow="visible"><text stroke="#ffffff" stroke-width="4" font-family="Open Sans" y="36.5" font-size="25pt" fill="#000000" font-weight="bold" transform="matrix(0.707 0.409 -0.707 0.409 0 0)" xml:space="preserve"><tspan x="8" dy="0">Dev</tspan></text><text font-family="Open Sans" y="36.5" font-size="25pt" fill="#000000" font-weight="bold" transform="matrix(0.707 0.409 -0.707 0.409 0 0)" xml:space="preserve"><tspan x="8" dy="0">Dev</tspan></text></svg></g></g><g opacity="1"><g id="1051aa24-8093-423b-b8d1-d3a41a3ccefe" transform="translate(0 0)"><svg x="448" y="463" overflow="visible"><text stroke="#ffffff" stroke-width="4" font-family="Open Sans" y="23.96" font-size="14pt" fill="#9e9e9e" font-weight="bold" transform="matrix(0.707 0.409 -0.707 0.409 0 0)" xml:space="preserve"><tspan x="8" dy="0">Docker Pull</tspan></text><text font-family="Open Sans" y="23.96" font-size="14pt" fill="#9e9e9e" font-weight="bold" transform="matrix(0.707 0.409 -0.707 0.409 0 0)" xml:space="preserve"><tspan x="8" dy="0">Docker Pull</tspan></text></svg></g></g><g opacity="1"><g id="6949715a-cd62-4978-beab-28fd4fca2e77" transform="translate(0 0)"><svg x="-1024" y="1092" overflow="visible"><text stroke="#ffffff" stroke-width="4" font-family="Open Sans" y="46.76" font-size="34pt" fill="#ffc107" font-weight="bold" transform="matrix(0.707 0.409 -0.707 0.409 0 0)" xml:space="preserve"><tspan x="8" dy="0">CloudFront</tspan></text><text font-family="Open Sans" y="46.76" font-size="34pt" fill="#ffc107" font-weight="bold" transform="matrix(0.707 0.409 -0.707 0.409 0 0)" xml:space="preserve"><tspan x="8" dy="0">CloudFront</tspan></text></svg></g></g><g opacity="1"><g id="3f0af6e8-d5ad-4ac0-9f3f-bc41ab5eeb24"><svg x="-144" y="601" overflow="visible"><text stroke="#ffffff" stroke-width="4" font-family="Open Sans" y="36.5" font-size="25pt" fill="#000000" font-weight="bold" transform="matrix(0.707 0.409 -0.707 0.409 0 0)" xml:space="preserve"><tspan x="8" dy="0">1 .. N</tspan></text><text font-family="Open Sans" y="36.5" font-size="25pt" fill="#000000" font-weight="bold" transform="matrix(0.707 0.409 -0.707 0.409 0 0)" xml:space="preserve"><tspan x="8" dy="0">1 .. N</tspan></text></svg></g></g><g opacity="1"><g id="8dfc2152-048f-43bb-989a-b501103a4c35" transform="translate(0 0)"><svg x="272" y="1045" overflow="visible"><text stroke="#ffffff" stroke-width="4" font-family="Open Sans" y="23.96" font-size="14pt" fill="#9e9e9e" font-weight="bold" transform="matrix(0.707 0.409 -0.707 0.409 0 0)" xml:space="preserve"><tspan x="8" dy="0">Run Task / Execute Command</tspan></text><text font-family="Open Sans" y="23.96" font-size="14pt" fill="#9e9e9e" font-weight="bold" transform="matrix(0.707 0.409 -0.707 0.409 0 0)" xml:space="preserve"><tspan x="8" dy="0">Run Task / Execute Command</tspan></text></svg></g></g><g opacity="1"><g id="e39fe5c6-c941-4485-b253-3a0a2a40ca40"><svg x="-400" y="453" overflow="visible"><text stroke="#ffffff" stroke-width="4" font-family="Open Sans" y="36.5" font-size="25pt" fill="#000000" font-weight="bold" transform="matrix(0.707 0.409 -0.707 0.409 0 0)" xml:space="preserve"><tspan x="8" dy="0">1 .. N</tspan></text><text font-family="Open Sans" y="36.5" font-size="25pt" fill="#000000" font-weight="bold" transform="matrix(0.707 0.409 -0.707 0.409 0 0)" xml:space="preserve"><tspan x="8" dy="0">1 .. N</tspan></text></svg></g></g></g></g></svg>